<svg width="679" height="427" viewBox="0 0 679 427" fill="none" xmlns="http://www.w3.org/2000/svg">
<g opacity="0.1">
<path d="M509.353 234.398L439.934 234.398L418.482 255.852L418.482 278.349C417.699 278.453 417.091 279.119 417.091 279.931C417.091 280.816 417.81 281.535 418.695 281.535C419.58 281.535 420.299 280.816 420.299 279.931C420.299 279.119 419.693 278.455 418.908 278.349L418.908 256.029L440.111 234.826L509.353 234.826C509.457 235.609 510.123 236.217 510.936 236.217C511.821 236.217 512.539 235.498 512.539 234.613C512.539 233.728 511.821 233.009 510.936 233.009C510.123 233.007 509.46 233.615 509.353 234.398Z" fill="#44BCFF"/>
<path d="M463.214 138.604L452.733 149.084L427.316 149.084L423.05 144.819L388.925 144.819L371.862 127.756L337.56 127.756L331.219 134.097C330.59 133.617 329.692 133.658 329.116 134.234C328.489 134.861 328.489 135.876 329.116 136.501C329.743 137.126 330.759 137.128 331.384 136.501C331.957 135.927 332 135.027 331.52 134.398L337.735 128.183L371.683 128.183L388.746 145.245L422.871 145.245L427.137 149.511L452.908 149.511L463.514 138.905C464.143 139.384 465.041 139.344 465.617 138.768C466.244 138.141 466.244 137.126 465.617 136.501C464.99 135.876 463.975 135.874 463.35 136.501C462.774 137.075 462.734 137.975 463.214 138.604Z" fill="#44BCFF"/>
<path d="M424.04 106.428L388.923 106.428L342.001 59.5058L307.876 59.5058L290.813 42.4432L272.582 42.4432C272.477 41.6605 271.812 41.0526 270.999 41.0526C270.114 41.0526 269.395 41.7714 269.395 42.6565C269.395 43.5416 270.114 44.2604 270.999 44.2604C271.812 44.2604 272.477 43.6547 272.582 42.8698L290.636 42.8698L307.699 59.9324L341.824 59.9324L388.746 106.855L424.04 106.855C424.144 107.637 424.81 108.245 425.622 108.245C426.508 108.245 427.226 107.526 427.226 106.641C427.226 105.756 426.508 105.037 425.622 105.037C424.81 105.037 424.147 105.645 424.04 106.428Z" fill="#44BCFF"/>
<path d="M29.0832 34.3385L111.481 34.3385L154.137 76.995L222.565 76.995L226.83 72.7293L260.955 72.7293L269.61 64.0722L269.61 58.6378C270.393 58.5332 271.001 57.8678 271.001 57.0552C271.001 56.1701 270.282 55.4513 269.397 55.4513C268.512 55.4513 267.793 56.1701 267.793 57.0552C267.793 57.8678 268.399 58.5311 269.184 58.6378L269.184 63.8952L260.778 72.3006L226.653 72.3006L222.388 76.5663L154.314 76.5663L111.658 33.9098L29.0832 33.9098C28.9786 33.127 28.3132 32.5192 27.5006 32.5192C26.6155 32.5192 25.8967 33.2379 25.8967 34.123C25.8967 35.0082 26.6155 35.7269 27.5006 35.7269C28.3132 35.7291 28.9765 35.1212 29.0832 34.3385Z" fill="#44BCFF"/>
<path d="M72.0979 13.0103L115.746 13.0103L149.871 47.1355L188.262 47.1355L198.743 57.6162C198.263 58.2454 198.304 59.1433 198.88 59.7192C199.507 60.3462 200.522 60.3462 201.147 59.7192C201.772 59.0921 201.774 58.0769 201.147 57.452C200.573 56.8783 199.673 56.8377 199.044 57.3155L188.437 46.7089L150.046 46.7089L115.921 12.5837L72.0958 12.5837C71.9913 11.801 71.3259 11.1931 70.5133 11.1931C69.6281 11.1931 68.9094 11.9119 68.9094 12.797C68.9094 13.6821 69.6281 14.4009 70.5133 14.4009C71.328 14.4009 71.9913 13.793 72.0979 13.0103Z" fill="#44BCFF"/>
<path d="M133.976 4.47891C134.08 5.26166 134.745 5.86951 135.558 5.86951C136.443 5.86951 137.162 5.15075 137.162 4.26563C137.162 3.38051 136.443 2.66174 135.558 2.66174C134.745 2.66174 134.08 3.26747 133.976 4.05235L102.947 4.05234L98.6816 8.318L60.4677 8.31799L56.202 4.05234L31.666 4.05234C31.5615 3.26959 30.896 2.66174 30.0834 2.66174C29.1983 2.66174 28.4796 3.3805 28.4796 4.26562C28.4796 5.15075 29.1983 5.86951 30.0834 5.86951C30.896 5.86951 31.5615 5.26379 31.666 4.47891L56.025 4.47891L60.2907 8.74456L98.8585 8.74456L103.124 4.47891L133.976 4.47891Z" fill="#44BCFF"/>
<path d="M222.388 16.8494L196.794 16.8494L175.465 38.1776L158.58 38.1776L156.63 36.2282C157.11 35.599 157.07 34.7011 156.494 34.1253C155.867 33.4982 154.852 33.4982 154.227 34.1253C153.602 34.7523 153.6 35.7675 154.227 36.3925C154.801 36.9662 155.701 37.0088 156.33 36.529L158.405 38.6042L175.645 38.6042L196.973 17.2759L222.567 17.2759L226.832 13.0103L257.684 13.0103C257.788 13.793 258.454 14.4009 259.266 14.4009C260.151 14.4009 260.87 13.6821 260.87 12.797C260.87 11.9119 260.151 11.1931 259.266 11.1931C258.454 11.1931 257.788 11.7988 257.684 12.5837L226.655 12.5837L222.388 16.8494Z" fill="#44BCFF"/>
<path d="M217.13 8.74458L239.627 8.74458L243.893 4.47893L277.841 4.47893L290.638 17.2759L333.472 17.2759L335.547 15.2006C336.176 15.6805 337.074 15.64 337.65 15.0641C338.277 14.4371 338.277 13.4219 337.65 12.797C337.023 12.172 336.008 12.1699 335.383 12.797C334.809 13.3707 334.766 14.2707 335.246 14.8999L333.297 16.8493L290.817 16.8493L278.02 4.05237L243.718 4.05236L239.452 8.31802L217.132 8.31802C217.028 7.53527 216.362 6.92741 215.55 6.92741C214.665 6.92741 213.946 7.64617 213.946 8.5313C213.946 9.41642 214.665 10.1352 215.55 10.1352C216.36 10.1352 217.024 9.52733 217.13 8.74458Z" fill="#44BCFF"/>
<path d="M281.115 25.3806C281.01 24.5979 280.345 23.99 279.532 23.99C278.647 23.99 277.929 24.7088 277.929 25.5939C277.929 26.479 278.647 27.1978 279.532 27.1978C280.345 27.1978 281.01 26.5921 281.115 25.8072L303.612 25.8072L307.878 21.5416L324.763 21.5416L333.295 30.0729L354.8 30.0729L356.875 27.9976C357.504 28.4775 358.402 28.437 358.978 27.8611C359.605 27.2341 359.605 26.2188 358.978 25.5939C358.351 24.969 357.336 24.9669 356.711 25.5939C356.137 26.1677 356.094 27.0677 356.574 27.6969L354.625 29.6463L333.474 29.6463L324.942 21.115L307.703 21.115L303.437 25.3806L281.115 25.3806Z" fill="#44BCFF"/>
<path d="M31.6661 30.0729L111.479 30.0729L154.135 72.7294L222.563 72.7294L231.094 64.1981L232.086 64.1981C232.19 64.9809 232.856 65.5887 233.668 65.5887C234.553 65.5887 235.272 64.87 235.272 63.9848C235.272 63.0997 234.553 62.381 233.668 62.381C232.856 62.381 232.19 62.9867 232.086 63.7716L230.917 63.7716L222.386 72.3029L154.312 72.3029L111.656 29.6463L31.6661 29.6463C31.5616 28.8636 30.8961 28.2557 30.0835 28.2557C29.1983 28.2557 28.4796 28.9745 28.4796 29.8596C28.4796 30.7447 29.1983 31.4635 30.0835 31.4635C30.8961 31.4635 31.5616 30.8556 31.6661 30.0729Z" fill="#44BCFF"/>
<path d="M31.666 42.8698L102.947 42.8698L141.214 81.1348L141.214 86.3922C140.432 86.4967 139.824 87.1622 139.824 87.9748C139.824 88.8599 140.542 89.5787 141.428 89.5787C142.313 89.5787 143.031 88.8599 143.031 87.9748C143.031 87.1622 142.426 86.4967 141.641 86.3922L141.641 80.9578L103.124 42.4432L31.666 42.4432C31.5615 41.6605 30.896 41.0526 30.0834 41.0526C29.1983 41.0526 28.4795 41.7714 28.4795 42.6565C28.4795 43.5416 29.1983 44.2604 30.0834 44.2604C30.896 44.2604 31.5615 43.6525 31.666 42.8698Z" fill="#44BCFF"/>
<path d="M71.5734 48.526C72.4585 48.526 73.1772 47.8072 73.1772 46.9221C73.1772 46.037 72.4585 45.3182 71.5734 45.3182C70.7607 45.3182 70.0953 45.924 69.9908 46.7088L31.6661 46.7088C31.5616 45.9261 30.8961 45.3182 30.0835 45.3182C29.1984 45.3182 28.4796 46.037 28.4796 46.9221C28.4796 47.8072 29.1984 48.526 30.0835 48.526C30.8961 48.526 31.5616 47.9203 31.6661 47.1354L69.9908 47.1354C70.0975 47.9182 70.7607 48.526 71.5734 48.526Z" fill="#44BCFF"/>
<path d="M90.2399 85.313C90.2399 84.4279 89.5211 83.7091 88.636 83.7091C87.8234 83.7091 87.1579 84.3149 87.0534 85.0997L64.7334 85.0997L60.4677 80.8341L31.6661 80.8341C31.5616 80.0513 30.8961 79.4435 30.0835 79.4435C29.1984 79.4435 28.4796 80.1622 28.4796 81.0474C28.4796 81.9325 29.1984 82.6512 30.0835 82.6512C30.8961 82.6512 31.5616 82.0455 31.6661 81.2606L60.2907 81.2606L64.5564 85.5263L87.0534 85.5263C87.1579 86.309 87.8234 86.9169 88.636 86.9169C89.5211 86.9169 90.2399 86.1981 90.2399 85.313Z" fill="#44BCFF"/>
<path d="M67.3077 78.3856C68.1929 78.3856 68.9116 77.6669 68.9116 76.7817C68.9116 75.8966 68.1929 75.1779 67.3077 75.1779C66.4951 75.1779 65.8297 75.7836 65.7252 76.5685L31.6661 76.5685C31.5616 75.7857 30.8961 75.1779 30.0835 75.1779C29.1984 75.1779 28.4796 75.8966 28.4796 76.7817C28.4796 77.6669 29.1984 78.3856 30.0835 78.3856C30.8961 78.3856 31.5616 77.7799 31.6661 76.995L65.7252 76.995C65.8318 77.7778 66.4951 78.3856 67.3077 78.3856Z" fill="#44BCFF"/>
<path d="M33.9973 145.245L60.4678 145.245L86.0617 119.652L102.947 119.652L107.213 123.917L138.241 123.917C138.346 124.7 139.011 125.308 139.824 125.308C140.709 125.308 141.428 124.589 141.428 123.704C141.428 122.819 140.709 122.1 139.824 122.1C139.011 122.1 138.346 122.706 138.241 123.491L107.39 123.491L103.124 119.225L85.8847 119.225L60.2908 144.819L33.9973 144.819C33.8928 144.036 33.2273 143.428 32.4147 143.428C31.5296 143.428 30.8109 144.147 30.8109 145.032C30.8109 145.917 31.5296 146.636 32.4147 146.636C33.2294 146.636 33.8928 146.028 33.9973 145.245Z" fill="#44BCFF"/>
<path d="M33.9973 140.98L60.4677 140.98L86.1875 115.26L86.1875 109.826C86.9703 109.721 87.5781 109.056 87.5781 108.243C87.5781 107.358 86.8594 106.639 85.9742 106.639C85.0891 106.639 84.3703 107.358 84.3703 108.243C84.3703 109.056 84.9761 109.721 85.761 109.826L85.761 115.083L60.2929 140.553L33.9994 140.553C33.8949 139.77 33.2294 139.163 32.4168 139.163C31.5317 139.163 30.813 139.881 30.813 140.767C30.813 141.652 31.5317 142.37 32.4168 142.37C33.2294 142.37 33.8928 141.763 33.9973 140.98Z" fill="#44BCFF"/>
<path d="M33.9973 166.574L56.2021 166.574L86.0617 136.714L104.116 136.714C104.221 137.497 104.886 138.105 105.699 138.105C106.584 138.105 107.302 137.386 107.302 136.501C107.302 135.616 106.584 134.897 105.699 134.897C104.886 134.897 104.221 135.503 104.116 136.288L85.8847 136.288L56.0251 166.147L33.9973 166.147C33.8928 165.364 33.2273 164.757 32.4147 164.757C31.5295 164.757 30.8108 165.475 30.8108 166.36C30.8108 167.246 31.5295 167.964 32.4147 167.964C33.2294 167.964 33.8928 167.356 33.9973 166.574Z" fill="#44BCFF"/>
<path d="M226.653 115.386L282.284 115.386L288.625 109.045C289.254 109.525 290.152 109.484 290.728 108.908C291.355 108.281 291.355 107.266 290.728 106.641C290.101 106.016 289.085 106.014 288.46 106.641C287.887 107.215 287.844 108.115 288.324 108.744L282.109 114.959L226.832 114.959L214.035 102.162L195.804 102.162C195.7 101.38 195.034 100.772 194.222 100.772C193.336 100.772 192.618 101.49 192.618 102.376C192.618 103.261 193.336 103.979 194.222 103.979C195.034 103.979 195.7 103.374 195.804 102.589L213.858 102.589L226.653 115.386Z" fill="#44BCFF"/>
<path d="M298.178 97.8967C298.073 97.114 297.408 96.5061 296.595 96.5061C295.71 96.5061 294.991 97.2249 294.991 98.11C294.991 98.9951 295.71 99.7139 296.595 99.7139C297.408 99.7139 298.073 99.1081 298.178 98.3233L311.966 98.3233L324.763 111.12L371.685 111.12L392.888 132.323L392.888 133.314C392.105 133.419 391.497 134.084 391.497 134.897C391.497 135.782 392.216 136.501 393.101 136.501C393.986 136.501 394.705 135.782 394.705 134.897C394.705 134.084 394.099 133.419 393.314 133.314L393.314 132.146L371.86 110.694L324.938 110.694L312.141 97.8967L298.178 97.8967Z" fill="#44BCFF"/>
<path d="M145.693 142.765C145.066 143.392 145.066 144.407 145.693 145.032C146.32 145.657 147.336 145.659 147.96 145.032C148.534 144.458 148.577 143.558 148.097 142.929L171.375 119.652L209.589 119.652L213.854 123.917L247.979 123.917L260.776 136.714L291.805 136.714C291.909 137.497 292.575 138.105 293.387 138.105C294.272 138.105 294.991 137.386 294.991 136.501C294.991 135.616 294.272 134.897 293.387 134.897C292.575 134.897 291.909 135.503 291.805 136.288L260.953 136.288L248.156 123.491L214.031 123.491L209.766 119.225L171.198 119.225L147.794 142.628C147.167 142.149 146.267 142.189 145.693 142.765Z" fill="#44BCFF"/>
<path d="M239.625 132.022L201.234 132.022L199.285 130.073C199.765 129.443 199.724 128.545 199.148 127.97C198.521 127.343 197.506 127.342 196.881 127.97C196.256 128.597 196.254 129.612 196.881 130.237C197.455 130.81 198.355 130.853 198.984 130.373L201.059 132.448L239.45 132.448L256.513 149.511L278.018 149.511L282.284 145.245L305.207 145.245C305.312 146.028 305.977 146.636 306.79 146.636C307.675 146.636 308.394 145.917 308.394 145.032C308.394 144.147 307.675 143.428 306.79 143.428C305.977 143.428 305.312 144.034 305.207 144.819L282.107 144.819L277.841 149.085L256.69 149.085L239.625 132.022Z" fill="#44BCFF"/>
<path d="M312.054 134.502C312.681 133.875 312.681 132.86 312.054 132.235C311.427 131.61 310.411 131.608 309.787 132.235C309.213 132.809 309.17 133.709 309.65 134.338L303.435 140.553L260.956 140.553L248.159 127.756L221.396 127.756C221.291 126.974 220.626 126.366 219.813 126.366C218.928 126.366 218.209 127.084 218.209 127.97C218.209 128.855 218.928 129.573 219.813 129.573C220.626 129.573 221.291 128.968 221.396 128.183L247.982 128.183L260.778 140.98L303.612 140.98L309.953 134.639C310.58 135.119 311.48 135.078 312.054 134.502Z" fill="#44BCFF"/>
<path d="M205.325 183.636L223.556 183.636C223.661 184.419 224.326 185.027 225.139 185.027C226.024 185.027 226.743 184.308 226.743 183.423C226.743 182.538 226.024 181.819 225.139 181.819C224.326 181.819 223.661 182.425 223.556 183.21L205.502 183.21L192.705 170.413L157.411 170.413C157.307 169.63 156.641 169.022 155.829 169.022C154.943 169.022 154.225 169.741 154.225 170.626C154.225 171.511 154.943 172.23 155.829 172.23C156.641 172.23 157.307 171.624 157.411 170.839L192.528 170.839L205.325 183.636Z" fill="#44BCFF"/>
<path d="M187.271 161.881C187.166 161.099 186.501 160.491 185.688 160.491C184.803 160.491 184.084 161.21 184.084 162.095C184.084 162.98 184.803 163.699 185.688 163.699C186.501 163.699 187.166 163.093 187.271 162.308L188.262 162.308L205.325 179.371L230.919 179.371L239.45 187.902L260.956 187.902L263.031 185.827C263.66 186.307 264.558 186.266 265.134 185.69C265.761 185.063 265.761 184.048 265.134 183.423C264.507 182.798 263.491 182.796 262.867 183.423C262.293 183.997 262.25 184.897 262.73 185.526L260.781 187.475L239.629 187.475L231.098 178.944L205.504 178.944L188.442 161.881L187.271 161.881Z" fill="#44BCFF"/>
<path d="M354.71 183.423C354.71 184.308 355.429 185.027 356.314 185.027C357.127 185.027 357.792 184.421 357.897 183.636L367.42 183.636L388.748 204.965L410.253 204.965L427.316 187.902L436.839 187.902C436.944 188.685 437.609 189.293 438.422 189.293C439.307 189.293 440.025 188.574 440.025 187.689C440.025 186.804 439.307 186.085 438.422 186.085C437.609 186.085 436.944 186.691 436.839 187.475L427.139 187.475L410.076 204.538L388.925 204.538L367.597 183.21L357.897 183.21C357.792 182.427 357.127 181.819 356.314 181.819C355.429 181.819 354.71 182.538 354.71 183.423Z" fill="#44BCFF"/>
<path d="M354.71 57.7206C355.284 58.2944 356.184 58.337 356.813 57.8571L363.154 64.198L384.659 64.198L388.925 59.9324L398.448 59.9324C398.553 60.7151 399.218 61.323 400.031 61.323C400.916 61.323 401.635 60.6042 401.635 59.7191C401.635 58.834 400.916 58.1152 400.031 58.1152C399.218 58.1152 398.553 58.7209 398.448 59.5058L388.748 59.5058L384.482 63.7715L363.331 63.7715L357.116 57.5564C357.596 56.9272 357.556 56.0293 356.98 55.4534C356.353 54.8264 355.337 54.8264 354.712 55.4534C354.088 56.0805 354.083 57.0957 354.71 57.7206Z" fill="#44BCFF"/>
<path d="M33.592 196.433L124.452 196.433L137.249 183.636L146.773 183.636C146.877 184.419 147.542 185.027 148.355 185.027C149.24 185.027 149.959 184.308 149.959 183.423C149.959 182.538 149.24 181.819 148.355 181.819C147.542 181.819 146.877 182.425 146.773 183.21L137.072 183.21L124.276 196.007L33.592 196.007C33.4875 195.224 32.822 194.616 32.0094 194.616C31.1243 194.616 30.4055 195.335 30.4055 196.22C30.4055 197.105 31.1243 197.824 32.0094 197.824C32.822 197.824 33.4875 197.216 33.592 196.433Z" fill="#44BCFF"/>
<path d="M75.839 193.558C76.7241 193.558 77.4429 192.839 77.4429 191.954C77.4429 191.069 76.7241 190.35 75.839 190.35C75.0264 190.35 74.3609 190.956 74.2564 191.741L33.9972 191.741C33.8927 190.958 33.2272 190.35 32.4146 190.35C31.5295 190.35 30.8108 191.069 30.8108 191.954C30.8108 192.839 31.5295 193.558 32.4146 193.558C33.2272 193.558 33.8927 192.953 33.9972 192.168L74.2564 192.168C74.3631 192.95 75.0264 193.558 75.839 193.558Z" fill="#44BCFF"/>
<path d="M188.262 204.965L214.033 204.965L216.109 202.889C216.738 203.369 217.636 203.329 218.212 202.753C218.839 202.126 218.839 201.111 218.212 200.486C217.585 199.861 216.569 199.859 215.944 200.486C215.371 201.059 215.328 201.959 215.808 202.589L213.859 204.538L188.442 204.538L179.91 196.007L170.21 196.007C170.106 195.224 169.44 194.616 168.628 194.616C167.743 194.616 167.024 195.335 167.024 196.22C167.024 197.105 167.743 197.824 168.628 197.824C169.44 197.824 170.106 197.218 170.21 196.433L179.733 196.433L188.262 204.965Z" fill="#44BCFF"/>
<path d="M28.4732 230.558L94.5929 230.558L103.124 222.027L151.038 222.027C151.143 222.81 151.808 223.418 152.621 223.418C153.506 223.418 154.225 222.699 154.225 221.814C154.225 220.929 153.506 220.21 152.621 220.21C151.808 220.21 151.143 220.816 151.038 221.601L102.947 221.601L94.4159 230.132L28.4732 230.132C28.3686 229.349 27.7032 228.741 26.8906 228.741C26.0055 228.741 25.2867 229.46 25.2867 230.345C25.2867 231.23 26.0055 231.949 26.8906 231.949C27.7032 231.949 28.3686 231.341 28.4732 230.558Z" fill="#44BCFF"/>
<path d="M77.4429 215.281C76.8692 214.707 75.9691 214.665 75.34 215.145L68.9991 208.804L33.592 208.804C33.4875 208.021 32.8221 207.413 32.0095 207.413C31.1244 207.413 30.4056 208.132 30.4056 209.017C30.4056 209.902 31.1244 210.621 32.0095 210.621C32.8221 210.621 33.4875 210.015 33.592 209.23L68.8221 209.23L75.0371 215.445C74.5572 216.074 74.5978 216.972 75.1736 217.548C75.8007 218.175 76.8159 218.175 77.4408 217.548C78.07 216.921 78.07 215.906 77.4429 215.281Z" fill="#44BCFF"/>
<path d="M189.429 234.824C189.534 235.607 190.199 236.215 191.012 236.215C191.897 236.215 192.615 235.496 192.615 234.611C192.615 233.726 191.897 233.007 191.012 233.007C190.199 233.007 189.534 233.613 189.429 234.398L179.729 234.398L162.666 251.46L150.046 251.46L124.452 225.866L114.752 225.866C114.648 225.084 113.982 224.476 113.17 224.476C112.285 224.476 111.566 225.194 111.566 226.08C111.566 226.965 112.285 227.683 113.17 227.683C113.982 227.683 114.648 227.078 114.752 226.293L124.275 226.293L149.869 251.887L162.843 251.887L179.906 234.824L189.429 234.824Z" fill="#44BCFF"/>
<path d="M278.142 209.104L278.142 203.67C278.925 203.565 279.532 202.9 279.532 202.087C279.532 201.202 278.814 200.484 277.929 200.484C277.043 200.484 276.325 201.202 276.325 202.087C276.325 202.9 276.93 203.563 277.715 203.67L277.715 208.927L239.45 247.195L222.388 247.195L213.856 255.726L183.005 255.726C182.9 254.943 182.235 254.335 181.422 254.335C180.537 254.335 179.819 255.054 179.819 255.939C179.819 256.824 180.537 257.543 181.422 257.543C182.235 257.543 182.9 256.937 183.005 256.152L214.033 256.152L222.565 247.621L239.627 247.621L278.142 209.104Z" fill="#44BCFF"/>
<path d="M219.813 241.538C218.928 241.538 218.209 242.257 218.209 243.142C218.209 244.027 218.928 244.746 219.813 244.746C220.626 244.746 221.291 244.14 221.396 243.355L239.627 243.355L273.876 209.104L273.876 199.404C274.659 199.3 275.267 198.634 275.267 197.822C275.267 196.937 274.548 196.218 273.663 196.218C272.778 196.218 272.059 196.937 272.059 197.822C272.059 198.634 272.665 199.298 273.45 199.404L273.45 208.927L239.45 242.929L221.396 242.929C221.289 242.146 220.626 241.538 219.813 241.538Z" fill="#44BCFF"/>
<path d="M342.001 200.272L303.433 200.272L297.092 206.613C296.463 206.133 295.565 206.174 294.989 206.75C294.362 207.377 294.362 208.392 294.989 209.017C295.616 209.642 296.631 209.644 297.256 209.017C297.83 208.443 297.873 207.543 297.393 206.914L303.61 200.699L341.824 200.699L380.215 239.09L394.18 239.09C394.285 239.873 394.95 240.48 395.763 240.48C396.648 240.48 397.367 239.762 397.367 238.877C397.367 237.991 396.648 237.273 395.763 237.273C394.95 237.273 394.285 237.878 394.18 238.663L380.392 238.663L342.001 200.272Z" fill="#44BCFF"/>
<path d="M380.392 247.195L346.266 213.069L340.832 213.069C340.728 212.287 340.062 211.679 339.249 211.679C338.364 211.679 337.646 212.397 337.646 213.283C337.646 214.168 338.364 214.886 339.249 214.886C340.062 214.886 340.728 214.281 340.832 213.496L346.089 213.496L380.215 247.621L418.783 247.621L448.642 217.762L461.262 217.762L467.477 223.977C466.997 224.606 467.038 225.504 467.614 226.08C468.241 226.707 469.256 226.707 469.881 226.08C470.506 225.453 470.508 224.437 469.881 223.812C469.307 223.239 468.407 223.196 467.778 223.676L461.437 217.335L448.463 217.335L418.603 247.195L380.392 247.195V247.195Z" fill="#44BCFF"/>
<path d="M111.568 266.469C110.994 265.895 110.094 265.852 109.465 266.332L103.124 259.991L28.9297 259.991C28.8252 259.209 28.1598 258.601 27.3472 258.601C26.4621 258.601 25.7433 259.32 25.7433 260.205C25.7433 261.09 26.4621 261.809 27.3472 261.809C28.1598 261.809 28.8252 261.203 28.9297 260.418L102.947 260.418L109.162 266.633C108.682 267.262 108.723 268.16 109.299 268.736C109.926 269.363 110.941 269.363 111.566 268.736C112.195 268.109 112.195 267.094 111.568 266.469Z" fill="#44BCFF"/>
<path d="M337.648 241.144C338.275 240.517 338.275 239.501 337.648 238.877C337.021 238.252 336.005 238.249 335.38 238.877C334.807 239.45 334.764 240.35 335.244 240.979L333.295 242.929L320.675 242.929L312.143 234.398L286.372 234.398L247.856 272.914L247.856 274.083C247.073 274.188 246.465 274.853 246.465 275.666C246.465 276.551 247.184 277.27 248.069 277.27C248.954 277.27 249.673 276.551 249.673 275.666C249.673 274.853 249.067 274.19 248.282 274.083L248.282 273.091L286.547 234.824L311.964 234.824L320.495 243.355L333.469 243.355L335.545 241.28C336.174 241.76 337.074 241.72 337.648 241.144Z" fill="#44BCFF"/>
<path d="M324.938 290.278L329.204 286.012L338.727 286.012C338.831 286.795 339.497 287.403 340.309 287.403C341.195 287.403 341.913 286.684 341.913 285.799C341.913 284.914 341.195 284.195 340.309 284.195C339.497 284.195 338.831 284.801 338.727 285.585L329.027 285.585L324.761 289.851L312.141 289.851L295.079 272.788L272.582 272.788C272.477 272.006 271.812 271.398 270.999 271.398C270.114 271.398 269.395 272.117 269.395 273.002C269.395 273.887 270.114 274.606 270.999 274.606C271.812 274.606 272.477 274 272.582 273.215L294.902 273.215L311.964 290.278L324.938 290.278Z" fill="#44BCFF"/>
<path d="M354.798 281.32L329.027 281.32L324.761 285.585L312.141 285.585L293.129 266.573C293.609 265.944 293.569 265.046 292.993 264.47C292.366 263.843 291.35 263.843 290.725 264.47C290.098 265.097 290.098 266.113 290.725 266.738C291.299 267.311 292.199 267.354 292.828 266.874L311.966 286.012L324.94 286.012L329.206 281.746L354.623 281.746L360.838 287.961C360.358 288.591 360.399 289.488 360.974 290.064C361.601 290.691 362.617 290.691 363.242 290.064C363.869 289.437 363.869 288.422 363.242 287.797C362.668 287.223 361.768 287.181 361.139 287.661L354.798 281.32Z" fill="#44BCFF"/>
<path d="M29.4629 286.012L69.0012 286.012L73.2668 281.746L124.278 281.746L137.075 294.543L158.58 294.543L171.377 281.746L226.83 281.746L261.079 247.495L261.079 246.326C261.862 246.222 262.47 245.557 262.47 244.744C262.47 243.859 261.751 243.14 260.866 243.14C259.981 243.14 259.262 243.859 259.262 244.744C259.262 245.557 259.868 246.222 260.653 246.326L260.653 247.318L226.653 281.32L171.2 281.32L158.403 294.117L137.252 294.117L124.455 281.32L73.0898 281.32L68.8242 285.585L29.4629 285.585C29.3584 284.803 28.6929 284.195 27.8803 284.195C26.9952 284.195 26.2764 284.914 26.2764 285.799C26.2764 286.684 26.9952 287.403 27.8803 287.403C28.6929 287.403 29.3562 286.795 29.4629 286.012Z" fill="#44BCFF"/>
<path d="M145.693 302.861C145.693 301.976 144.975 301.257 144.089 301.257C143.277 301.257 142.611 301.863 142.507 302.648L124.453 302.648L107.39 285.585L73.0877 285.585L68.8221 289.851L34.1999 289.851C34.0954 289.068 33.4299 288.46 32.6173 288.46C31.7322 288.46 31.0134 289.179 31.0134 290.064C31.0134 290.949 31.7322 291.668 32.6173 291.668C33.4299 291.668 34.0954 291.062 34.1999 290.278L68.999 290.278L73.2647 286.012L107.213 286.012L124.276 303.075L142.507 303.075C142.611 303.857 143.277 304.465 144.089 304.465C144.975 304.465 145.693 303.746 145.693 302.861Z" fill="#44BCFF"/>
<path d="M32.4275 341.465L94.5951 341.465L111.658 324.403L158.403 324.403L160.352 326.352C159.872 326.981 159.913 327.879 160.489 328.455C161.116 329.082 162.131 329.082 162.756 328.455C163.381 327.828 163.383 326.813 162.756 326.188C162.182 325.614 161.282 325.572 160.653 326.051L158.578 323.976L111.479 323.976L94.416 341.039L32.4253 341.039C32.3208 340.256 31.6554 339.648 30.8428 339.648C29.9577 339.648 29.2389 340.367 29.2389 341.252C29.2389 342.137 29.9577 342.856 30.8428 342.856C31.6575 342.856 32.3208 342.248 32.4275 341.465Z" fill="#44BCFF"/>
<path d="M34.202 354.262L102.949 354.262L132.809 384.122L151.04 384.122C151.145 384.905 151.81 385.513 152.623 385.513C153.508 385.513 154.227 384.794 154.227 383.909C154.227 383.024 153.508 382.305 152.623 382.305C151.81 382.305 151.145 382.911 151.04 383.695L132.986 383.695L103.126 353.836L34.202 353.836C34.0975 353.053 33.4321 352.445 32.6195 352.445C31.7343 352.445 31.0156 353.164 31.0156 354.049C31.0156 354.934 31.7343 355.653 32.6195 355.653C33.4321 355.653 34.0954 355.045 34.202 354.262Z" fill="#44BCFF"/>
<path d="M34.202 362.794L81.6211 362.794L111.481 392.653L145.783 392.653L147.858 390.578C148.487 391.058 149.385 391.017 149.961 390.441C150.588 389.814 150.588 388.799 149.961 388.174C149.334 387.549 148.319 387.547 147.694 388.174C147.12 388.748 147.078 389.648 147.557 390.277L145.608 392.227L111.66 392.227L81.8002 362.367L34.2041 362.367C34.0996 361.584 33.4342 360.976 32.6216 360.976C31.7364 360.976 31.0177 361.695 31.0177 362.58C31.0177 363.466 31.7364 364.184 32.6216 364.184C33.432 364.184 34.0953 363.576 34.202 362.794Z" fill="#44BCFF"/>
<path d="M34.202 358.528L102.949 358.528L128.417 383.996L128.417 384.988C127.635 385.092 127.027 385.758 127.027 386.57C127.027 387.456 127.746 388.174 128.631 388.174C129.516 388.174 130.235 387.456 130.235 386.57C130.235 385.758 129.629 385.092 128.844 384.988L128.844 383.819L103.124 358.101L34.1999 358.101C34.0954 357.319 33.4299 356.711 32.6173 356.711C31.7322 356.711 31.0134 357.43 31.0134 358.315C31.0134 359.2 31.7322 359.919 32.6173 359.919C33.4321 359.919 34.0954 359.311 34.202 358.528Z" fill="#44BCFF"/>
<path d="M32.4274 413.982L77.5324 413.982L90.3294 401.185L185.165 401.185C185.27 401.967 185.935 402.575 186.748 402.575C187.633 402.575 188.352 401.856 188.352 400.971C188.352 400.086 187.633 399.367 186.748 399.367C185.935 399.367 185.27 399.973 185.165 400.758L90.1524 400.758L77.3554 413.555L32.4274 413.555C32.3229 412.772 31.6575 412.164 30.8449 412.164C29.9597 412.164 29.241 412.883 29.241 413.768C29.241 414.653 29.9597 415.372 30.8449 415.372C31.6575 415.372 32.3208 414.764 32.4274 413.982Z" fill="#44BCFF"/>
<path d="M28.9297 401.185L56.2021 401.185L64.7334 392.653L94.416 392.653L96.3653 394.603C95.8855 395.232 95.926 396.13 96.5019 396.706C97.1289 397.333 98.1441 397.333 98.769 396.706C99.394 396.079 99.3961 395.063 98.769 394.438C98.1953 393.865 97.2952 393.822 96.666 394.302L94.5908 392.227L64.5543 392.227L56.023 400.758L28.9275 400.758C28.823 399.975 28.1576 399.367 27.345 399.367C26.4599 399.367 25.7411 400.086 25.7411 400.971C25.7411 401.856 26.4599 402.575 27.345 402.575C28.1597 402.575 28.8251 401.967 28.9297 401.185Z" fill="#44BCFF"/>
<path d="M34.202 422.513L120.189 422.513L126.53 416.172C127.159 416.652 128.057 416.611 128.633 416.035C129.26 415.408 129.26 414.393 128.633 413.768C128.006 413.143 126.991 413.141 126.366 413.768C125.792 414.342 125.749 415.242 126.229 415.871L120.014 422.086L34.2041 422.086C34.0996 421.304 33.4342 420.696 32.6216 420.696C31.7365 420.696 31.0177 421.414 31.0177 422.3C31.0177 423.185 31.7365 423.903 32.6216 423.903C33.4321 423.903 34.0953 423.296 34.202 422.513Z" fill="#44BCFF"/>
<path d="M141.34 367.059L188.439 367.059L205.502 349.997L252.247 349.997L258.462 356.212C257.982 356.841 258.023 357.739 258.599 358.315C259.226 358.942 260.241 358.942 260.866 358.315C261.491 357.688 261.493 356.673 260.866 356.048C260.292 355.474 259.392 355.431 258.763 355.911L252.422 349.57L205.323 349.57L188.26 366.633L141.515 366.633L122.503 347.621C122.983 346.992 122.942 346.094 122.367 345.518C121.74 344.891 120.724 344.891 120.099 345.518C119.475 346.145 119.472 347.16 120.099 347.785C120.673 348.359 121.573 348.401 122.202 347.922L141.34 367.059Z" fill="#44BCFF"/>
<path d="M147.297 347.122C148.11 347.122 148.775 346.516 148.88 345.731L162.845 345.731L184.174 324.403L213.856 324.403L222.388 332.934L283.276 332.934C283.38 333.717 284.045 334.325 284.858 334.325C285.743 334.325 286.462 333.606 286.462 332.721C286.462 331.836 285.743 331.117 284.858 331.117C284.045 331.117 283.38 331.723 283.276 332.508L222.565 332.508L214.033 323.976L183.997 323.976L162.668 345.305L148.88 345.305C148.775 344.522 148.11 343.914 147.297 343.914C146.412 343.914 145.693 344.633 145.693 345.518C145.693 346.403 146.412 347.122 147.297 347.122Z" fill="#44BCFF"/>
<path d="M301.919 309.789C301.106 309.789 300.441 310.394 300.336 311.179L286.37 311.179L273.573 323.976L222.562 323.976L212.082 313.496C212.562 312.866 212.521 311.968 211.945 311.393C211.318 310.766 210.303 310.766 209.678 311.393C209.051 312.02 209.051 313.035 209.678 313.66C210.252 314.234 211.152 314.276 211.781 313.796L222.388 324.403L273.752 324.403L286.549 311.606L300.338 311.606C300.443 312.389 301.108 312.996 301.921 312.996C302.806 312.996 303.525 312.278 303.525 311.393C303.522 310.507 302.804 309.789 301.919 309.789Z" fill="#44BCFF"/>
<path d="M312.054 309.125C311.48 308.552 310.58 308.509 309.951 308.989L299.344 298.382L286.37 298.382L265.042 319.711L235.36 319.711L229.144 313.496C229.624 312.866 229.584 311.968 229.008 311.393C228.381 310.766 227.366 310.766 226.741 311.393C226.114 312.02 226.114 313.035 226.741 313.66C227.315 314.234 228.215 314.276 228.844 313.796L235.185 320.137L265.221 320.137L286.549 298.809L299.169 298.809L309.65 309.29C309.17 309.919 309.211 310.817 309.787 311.393C310.414 312.02 311.429 312.02 312.054 311.393C312.681 310.766 312.681 309.75 312.054 309.125Z" fill="#44BCFF"/>
<path d="M246.465 416.43C245.653 416.43 244.987 417.036 244.883 417.821L226.828 417.821L214.031 405.024L205.5 405.024L192.703 392.227L166.932 392.227L164.857 394.302C164.228 393.822 163.33 393.863 162.754 394.438C162.127 395.066 162.127 396.081 162.754 396.706C163.381 397.331 164.396 397.333 165.021 396.706C165.595 396.132 165.637 395.232 165.158 394.603L167.107 392.653L192.524 392.653L205.321 405.45L213.852 405.45L226.649 418.247L244.88 418.247C244.985 419.03 245.65 419.638 246.463 419.638C247.348 419.638 248.067 418.919 248.067 418.034C248.067 417.149 247.35 416.43 246.465 416.43Z" fill="#44BCFF"/>
<path d="M424.04 362.367L410.074 362.367L397.277 375.164L371.86 375.164L363.329 366.633L357.895 366.633C357.79 365.85 357.125 365.242 356.312 365.242C355.427 365.242 354.708 365.961 354.708 366.846C354.708 367.731 355.427 368.45 356.312 368.45C357.125 368.45 357.79 367.844 357.895 367.059L363.152 367.059L371.683 375.591L397.454 375.591L410.251 362.794L424.04 362.794C424.144 363.576 424.81 364.184 425.622 364.184C426.508 364.184 427.226 363.466 427.226 362.58C427.226 361.695 426.508 360.977 425.622 360.977C424.81 360.977 424.147 361.584 424.04 362.367Z" fill="#44BCFF"/>
<path d="M351.524 349.57L324.761 349.57L277.839 396.492L231.094 396.492L224.879 390.277C225.359 389.648 225.318 388.75 224.742 388.174C224.115 387.547 223.1 387.547 222.475 388.174C221.85 388.801 221.848 389.817 222.475 390.442C223.049 391.015 223.949 391.058 224.578 390.578L230.919 396.919L278.018 396.919L324.94 349.997L351.526 349.997C351.631 350.779 352.296 351.387 353.109 351.387C353.994 351.387 354.712 350.669 354.712 349.783C354.712 348.898 353.994 348.18 353.109 348.18C352.294 348.18 351.631 348.787 351.524 349.57Z" fill="#44BCFF"/>
<path d="M303.522 319.924C303.522 320.809 304.241 321.528 305.126 321.528C305.939 321.528 306.604 320.922 306.709 320.137L320.498 320.137L333.295 332.934L371.862 332.934L380.394 324.403L394.183 324.403C394.287 325.186 394.952 325.793 395.765 325.793C396.65 325.793 397.369 325.075 397.369 324.19C397.369 323.304 396.65 322.586 395.765 322.586C394.952 322.586 394.287 323.191 394.183 323.976L380.217 323.976L371.685 332.508L333.472 332.508L320.675 319.711L306.709 319.711C306.604 318.928 305.939 318.32 305.126 318.32C304.241 318.32 303.522 319.039 303.522 319.924Z" fill="#44BCFF"/>
<path d="M517.884 191.741L486.856 191.741L482.59 196.007L444.199 196.007L422.871 217.335L397.454 217.335L367.595 187.475L289.644 187.475C289.54 186.693 288.874 186.085 288.062 186.085C287.176 186.085 286.458 186.804 286.458 187.689C286.458 188.574 287.176 189.293 288.062 189.293C288.874 189.293 289.54 188.687 289.644 187.902L367.418 187.902L397.277 217.762L423.048 217.762L444.376 196.433L482.767 196.433L487.033 192.168L517.884 192.168C517.989 192.95 518.654 193.558 519.467 193.558C520.352 193.558 521.071 192.84 521.071 191.954C521.071 191.069 520.352 190.35 519.467 190.35C518.654 190.35 517.991 190.958 517.884 191.741Z" fill="#315ED2"/>
<path d="M389.915 38.1776L371.683 38.1776L363.152 46.7089L329.204 46.7089L312.141 29.6463L273.75 29.6463L269.485 25.3806L239.448 25.3806L232.8 32.0286C232.171 31.5487 231.273 31.5893 230.697 32.1651C230.07 32.7922 230.07 33.8074 230.697 34.4323C231.324 35.0594 232.339 35.0594 232.964 34.4323C233.538 33.8586 233.581 32.9585 233.101 32.3294L239.625 25.8072L269.308 25.8072L273.573 30.0728L311.964 30.0728L329.027 47.1354L363.329 47.1354L371.86 38.6041L389.915 38.6041C390.019 39.3869 390.685 39.9947 391.497 39.9947C392.382 39.9947 393.101 39.276 393.101 38.3909C393.101 37.5057 392.382 36.787 391.497 36.787C390.685 36.787 390.021 37.3948 389.915 38.1776Z" fill="#315ED2"/>
<path d="M31.6661 21.5416L73.2647 21.5416L75.3399 19.4663C75.9691 19.9462 76.8671 19.9057 77.4429 19.3298C78.07 18.7028 78.07 17.6875 77.4429 17.0626C76.8159 16.4377 75.8007 16.4356 75.1758 17.0626C74.602 17.6364 74.5593 18.5364 75.0392 19.1656L73.0898 21.115L31.6682 21.115C31.5637 20.3322 30.8982 19.7244 30.0856 19.7244C29.2005 19.7244 28.4817 20.4432 28.4817 21.3283C28.4817 22.2134 29.2005 22.9322 30.0856 22.9322C30.8961 22.9322 31.5616 22.3243 31.6661 21.5416Z" fill="#315ED2"/>
<path d="M127.027 14.4009C127.027 15.2135 127.632 15.8789 128.417 15.9834L128.417 21.4179L149.871 42.8698L175.642 42.8698L184.174 34.3385L206.494 34.3385C206.598 35.1213 207.264 35.7291 208.076 35.7291C208.961 35.7291 209.68 35.0104 209.68 34.1253C209.68 33.2401 208.961 32.5214 208.076 32.5214C207.264 32.5214 206.598 33.1271 206.494 33.912L183.997 33.912L175.465 42.4433L150.048 42.4433L128.844 21.2409L128.844 15.9834C129.627 15.8789 130.235 15.2135 130.235 14.4009C130.235 13.5158 129.516 12.797 128.631 12.797C127.746 12.797 127.027 13.5158 127.027 14.4009Z" fill="#315ED2"/>
<path d="M93.4263 21.5415L115.746 21.5415L132.683 38.4783L132.683 47.0096L154.137 68.4637L176.634 68.4637C176.739 69.2465 177.404 69.8543 178.217 69.8543C179.102 69.8543 179.821 69.1355 179.821 68.2504C179.821 67.3653 179.102 66.6465 178.217 66.6465C177.404 66.6465 176.739 67.2523 176.634 68.0371L154.314 68.0371L133.11 46.8347L133.11 38.3034L115.921 21.115L93.4241 21.115C93.3196 20.3322 92.6542 19.7244 91.8416 19.7244C90.9565 19.7244 90.2377 20.4431 90.2377 21.3282C90.2377 22.2134 90.9565 22.9321 91.8416 22.9321C92.6563 22.9321 93.3196 22.3243 93.4263 21.5415Z" fill="#315ED2"/>
<path d="M115.834 66.2519C116.461 65.6249 116.461 64.6097 115.834 63.9847C115.207 63.3598 114.192 63.3577 113.567 63.9847C112.993 64.5585 112.95 65.4585 113.43 66.0877L107.215 72.3028L81.7981 72.3028L67.0518 57.5564C67.5317 56.9272 67.4911 56.0293 66.9153 55.4534C66.2882 54.8264 65.273 54.8264 64.6481 55.4534C64.0232 56.0805 64.021 57.0957 64.6481 57.7206C65.2218 58.2944 66.1219 58.337 66.7511 57.8571L81.6233 72.7293L107.394 72.7293L113.735 66.3884C114.36 66.8683 115.26 66.8278 115.834 66.2519Z" fill="#315ED2"/>
<path d="M31.6661 89.7919L94.5929 89.792L103.124 81.2606L129.71 81.2606C129.814 82.0434 130.48 82.6512 131.292 82.6512C132.178 82.6512 132.896 81.9325 132.896 81.0474C132.896 80.1622 132.178 79.4435 131.292 79.4435C130.48 79.4435 129.814 80.0492 129.71 80.8341L102.947 80.8341L94.4159 89.3654L31.6661 89.3654C31.5616 88.5826 30.8961 87.9748 30.0835 87.9748C29.1984 87.9748 28.4796 88.6935 28.4796 89.5787C28.4796 90.4638 29.1984 91.1825 30.0835 91.1825C30.8961 91.1825 31.5616 90.5747 31.6661 89.7919Z" fill="#315ED2"/>
<path d="M33.9972 175.105L111.656 175.105L122.262 164.498C122.891 164.978 123.789 164.938 124.365 164.362C124.992 163.735 124.992 162.72 124.365 162.095C123.738 161.47 122.723 161.468 122.098 162.095C121.524 162.668 121.481 163.569 121.961 164.198L111.481 174.678L33.9993 174.678C33.8948 173.896 33.2294 173.288 32.4168 173.288C31.5316 173.288 30.8129 174.007 30.8129 174.892C30.8129 175.777 31.5316 176.496 32.4168 176.496C33.2294 176.496 33.8927 175.888 33.9972 175.105Z" fill="#315ED2"/>
<path d="M154.225 112.905C153.598 113.532 153.598 114.548 154.225 115.173C154.852 115.798 155.867 115.8 156.492 115.173C157.066 114.599 157.108 113.699 156.628 113.07L175.64 94.0577L222.385 94.0577L226.651 98.3233L273.75 98.3233L282.282 89.792L321.664 89.792C321.769 90.5748 322.434 91.1826 323.247 91.1826C324.132 91.1826 324.851 90.4639 324.851 89.5787C324.851 88.6936 324.132 87.9749 323.247 87.9749C322.434 87.9749 321.769 88.5806 321.664 89.3655L282.105 89.3655L273.573 97.8968L226.828 97.8968L222.562 93.6311L175.463 93.6311L156.325 112.769C155.698 112.289 154.798 112.33 154.225 112.905Z" fill="#315ED2"/>
<path d="M275.93 93.8443C276.504 93.2706 276.547 92.3706 276.067 91.7414L282.282 85.5263L316.407 85.5263L324.938 76.995L334.461 76.995C334.566 77.7778 335.231 78.3856 336.044 78.3856C336.929 78.3856 337.648 77.6669 337.648 76.7817C337.648 75.8966 336.929 75.1779 336.044 75.1779C335.231 75.1779 334.566 75.7836 334.461 76.5685L324.761 76.5685L316.23 85.0998L282.105 85.0998L275.764 91.4407C275.135 90.9608 274.237 91.0013 273.661 91.5772C273.034 92.2042 273.034 93.2194 273.661 93.8443C274.288 94.4693 275.305 94.4714 275.93 93.8443Z" fill="#315ED2"/>
<path d="M285.381 127.756C285.276 126.974 284.611 126.366 283.798 126.366C282.913 126.366 282.194 127.084 282.194 127.97C282.194 128.855 282.913 129.573 283.798 129.573C284.611 129.573 285.276 128.968 285.381 128.183L303.612 128.183L316.409 115.386L363.154 115.386L388.748 140.98L394.183 140.98C394.287 141.763 394.952 142.37 395.765 142.37C396.65 142.37 397.369 141.652 397.369 140.767C397.369 139.881 396.65 139.163 395.765 139.163C394.952 139.163 394.287 139.768 394.183 140.553L388.925 140.553L363.331 114.959L316.232 114.959L303.435 127.756L285.381 127.756Z" fill="#315ED2"/>
<path d="M362.162 42.4432C362.058 41.6604 361.392 41.0526 360.58 41.0526C359.695 41.0526 358.976 41.7714 358.976 42.6565C358.976 43.5416 359.695 44.2604 360.58 44.2604C361.392 44.2604 362.058 43.6546 362.162 42.8698L363.331 42.8698L376.128 30.0728L405.811 30.0728L407.76 32.0222C407.28 32.6514 407.321 33.5493 407.897 34.1252C408.524 34.7522 409.539 34.7522 410.164 34.1252C410.789 33.4981 410.791 32.4829 410.164 31.858C409.59 31.2842 408.69 31.2416 408.061 31.7215L405.986 29.6462L375.949 29.6462L363.152 42.4432L362.162 42.4432V42.4432Z" fill="#315ED2"/>
<path d="M226.828 140.553L166.932 140.553L145.48 162.007L145.48 167.442C144.697 167.546 144.089 168.212 144.089 169.024C144.089 169.909 144.808 170.628 145.693 170.628C146.578 170.628 147.297 169.909 147.297 169.024C147.297 168.212 146.691 167.546 145.907 167.442L145.907 162.184L167.109 140.98L226.651 140.98L237.132 151.46C236.652 152.09 236.692 152.988 237.268 153.563C237.895 154.191 238.911 154.191 239.536 153.563C240.16 152.936 240.163 151.921 239.536 151.296C238.962 150.723 238.062 150.68 237.433 151.16L226.828 140.553Z" fill="#315ED2"/>
<path d="M149.959 159.828C149.332 160.455 149.332 161.47 149.959 162.095C150.586 162.72 151.601 162.722 152.226 162.095C152.8 161.521 152.843 160.621 152.363 159.992L167.109 145.245L205.323 145.245L209.589 149.511L219.289 149.511C219.393 150.294 220.059 150.902 220.871 150.902C221.756 150.902 222.475 150.183 222.475 149.298C222.475 148.413 221.756 147.694 220.871 147.694C220.059 147.694 219.393 148.3 219.289 149.085L209.766 149.084L205.5 144.819L166.932 144.819L152.06 159.691C151.433 159.211 150.533 159.252 149.959 159.828Z" fill="#315ED2"/>
<path d="M88.0772 207.155L94.4181 213.496L128.72 213.496L145.783 196.433L150.049 196.433L167.111 179.371L192.528 179.371L200.934 187.776L200.934 193.034C200.151 193.138 199.543 193.803 199.543 194.616C199.543 195.501 200.262 196.22 201.147 196.22C202.032 196.22 202.751 195.501 202.751 194.616C202.751 193.803 202.145 193.138 201.36 193.034L201.36 187.599L192.703 178.944L166.932 178.944L149.869 196.007L145.604 196.007L128.541 213.069L94.593 213.069L88.3779 206.854C88.8578 206.225 88.8173 205.327 88.2414 204.751C87.6143 204.124 86.5991 204.124 85.9742 204.751C85.3493 205.378 85.3472 206.394 85.9742 207.018C86.548 207.594 87.448 207.635 88.0772 207.155Z" fill="#315ED2"/>
<path d="M207.274 236.774C206.795 237.403 206.835 238.301 207.411 238.877C208.038 239.504 209.053 239.504 209.678 238.877C210.303 238.249 210.305 237.234 209.678 236.609C209.104 236.036 208.204 235.993 207.575 236.473L201.234 230.132L179.729 230.132L166.932 242.929L153.143 242.929C153.039 242.146 152.373 241.538 151.561 241.538C150.676 241.538 149.957 242.257 149.957 243.142C149.957 244.027 150.676 244.746 151.561 244.746C152.373 244.746 153.039 244.14 153.143 243.355L167.109 243.355L179.906 230.559L201.057 230.559L207.274 236.774Z" fill="#315ED2"/>
<path d="M410.164 241.144C410.791 240.517 410.791 239.501 410.164 238.877C409.537 238.252 408.522 238.249 407.897 238.877C407.323 239.45 407.28 240.35 407.76 240.979L405.811 242.929L380.394 242.929L342.003 204.538L328.037 204.538C327.933 203.755 327.267 203.147 326.455 203.147C325.57 203.147 324.851 203.866 324.851 204.751C324.851 205.636 325.57 206.355 326.455 206.355C327.267 206.355 327.933 205.749 328.037 204.965L341.826 204.965L380.217 243.355L405.988 243.355L408.063 241.28C408.69 241.76 409.59 241.72 410.164 241.144Z" fill="#315ED2"/>
<path d="M145.693 273.002C145.693 272.117 144.975 271.398 144.089 271.398C143.277 271.398 142.611 272.004 142.507 272.788L124.453 272.788L107.39 255.726L28.4732 255.726C28.3687 254.943 27.7033 254.335 26.8907 254.335C26.0056 254.335 25.2868 255.054 25.2868 255.939C25.2868 256.824 26.0056 257.543 26.8907 257.543C27.7033 257.543 28.3687 256.937 28.4732 256.152L107.213 256.152L124.276 273.215L142.507 273.215C142.611 273.998 143.277 274.606 144.089 274.606C144.975 274.606 145.693 273.887 145.693 273.002Z" fill="#315ED2"/>
<path d="M312.141 230.132L286.37 230.132L239.324 277.18L239.324 278.349C238.542 278.453 237.934 279.119 237.934 279.931C237.934 280.816 238.653 281.535 239.538 281.535C240.423 281.535 241.142 280.816 241.142 279.931C241.142 279.119 240.536 278.455 239.751 278.349L239.751 277.357L286.547 230.559L311.964 230.559L320.496 239.09L325.93 239.09C326.034 239.873 326.7 240.48 327.513 240.48C328.398 240.48 329.116 239.762 329.116 238.877C329.116 237.991 328.398 237.273 327.513 237.273C326.7 237.273 326.034 237.878 325.93 238.663L320.673 238.663L312.141 230.132Z" fill="#315ED2"/>
<path d="M310.192 262.308C310.672 261.679 310.631 260.781 310.055 260.205C309.428 259.578 308.413 259.578 307.788 260.205C307.163 260.832 307.161 261.847 307.788 262.472C308.362 263.046 309.262 263.088 309.891 262.608L324.763 277.481L371.862 277.481L378.203 271.14C378.833 271.62 379.73 271.579 380.306 271.003C380.933 270.376 380.933 269.361 380.306 268.736C379.679 268.109 378.664 268.109 378.039 268.736C377.465 269.31 377.423 270.21 377.903 270.839L371.688 277.054L324.942 277.054L310.192 262.308Z" fill="#315ED2"/>
<path d="M343.775 309.23L341.826 311.179L316.409 311.179L295.081 289.851L256.513 289.851L243.716 302.648L196.794 302.648L166.934 332.508L157.411 332.508C157.306 331.725 156.641 331.117 155.828 331.117C154.943 331.117 154.225 331.836 154.225 332.721C154.225 333.606 154.943 334.325 155.828 334.325C156.641 334.325 157.306 333.719 157.411 332.934L167.111 332.934L196.971 303.075L243.893 303.075L256.69 290.278L294.904 290.278L316.232 311.606L342.003 311.606L344.078 309.531C344.707 310.01 345.605 309.97 346.181 309.394C346.808 308.767 346.808 307.752 346.181 307.127C345.554 306.5 344.539 306.5 343.914 307.127C343.336 307.701 343.295 308.601 343.775 309.23Z" fill="#315ED2"/>
<path d="M33.592 337.2L90.3273 337.2L96.6682 330.859C97.2974 331.339 98.1953 331.298 98.7712 330.722C99.3982 330.095 99.3982 329.08 98.7712 328.455C98.1441 327.83 97.1289 327.828 96.504 328.455C95.9303 329.029 95.8876 329.929 96.3675 330.558L90.1524 336.773L33.5941 336.773C33.4896 335.99 32.8242 335.383 32.0116 335.383C31.1264 335.383 30.4077 336.101 30.4077 336.987C30.4077 337.872 31.1264 338.59 32.0116 338.59C32.822 338.59 33.4875 337.983 33.592 337.2Z" fill="#315ED2"/>
<path d="M84.3702 334.325C85.2554 334.325 85.9741 333.606 85.9741 332.721C85.9741 331.836 85.2554 331.117 84.3702 331.117C83.5576 331.117 82.8922 331.723 82.7877 332.508L33.5919 332.508C33.4874 331.725 32.822 331.117 32.0093 331.117C31.1242 331.117 30.4055 331.836 30.4055 332.721C30.4055 333.606 31.1242 334.325 32.0093 334.325C32.822 334.325 33.4874 333.719 33.5919 332.934L82.7877 332.934C82.8943 333.717 83.5576 334.325 84.3702 334.325Z" fill="#315ED2"/>
<path d="M316.319 159.828C315.692 160.455 315.692 161.47 316.319 162.095C316.946 162.72 317.962 162.722 318.587 162.095C319.16 161.521 319.203 160.621 318.723 159.992L320.673 158.042L341.824 158.042L350.355 166.574L364.321 166.574C364.425 167.356 365.091 167.964 365.903 167.964C366.788 167.964 367.507 167.246 367.507 166.36C367.507 165.475 366.788 164.757 365.903 164.757C365.091 164.757 364.425 165.362 364.321 166.147L350.532 166.147L342.001 157.616L320.495 157.616L318.42 159.691C317.793 159.211 316.893 159.252 316.319 159.828Z" fill="#315ED2"/>
<path d="M236.351 422.086L226.828 422.086L214.031 409.289L188.26 409.289L179.729 417.821L167.109 417.821L165.16 415.871C165.64 415.242 165.599 414.344 165.023 413.768C164.396 413.141 163.381 413.141 162.756 413.768C162.131 414.395 162.129 415.411 162.756 416.035C163.33 416.609 164.23 416.652 164.859 416.172L166.934 418.247L179.908 418.247L188.439 409.716L213.856 409.716L226.653 422.513L236.353 422.513C236.458 423.296 237.123 423.903 237.936 423.903C238.821 423.903 239.54 423.185 239.54 422.3C239.54 421.414 238.821 420.696 237.936 420.696C237.121 420.696 236.458 421.304 236.351 422.086Z" fill="#315ED2"/>
<path d="M294.778 414.847C293.995 414.952 293.387 415.617 293.387 416.43C293.387 417.315 294.106 418.034 294.991 418.034C295.876 418.034 296.595 417.315 296.595 416.43C296.595 415.617 295.989 414.952 295.204 414.847L295.204 405.324L320.673 379.856L354.621 379.856L360.836 386.071C360.356 386.701 360.396 387.598 360.972 388.174C361.599 388.801 362.615 388.801 363.239 388.174C363.864 387.547 363.867 386.532 363.239 385.907C362.666 385.333 361.766 385.291 361.137 385.771L354.796 379.43L320.493 379.43L294.778 405.149L294.778 414.847Z" fill="#315ED2"/>
<path d="M377.118 392.227L359.063 392.227L350.532 383.695L320.495 383.695L316.104 388.087L316.104 389.256C315.321 389.36 314.713 390.026 314.713 390.838C314.713 391.723 315.432 392.442 316.317 392.442C317.202 392.442 317.921 391.723 317.921 390.838C317.921 390.026 317.315 389.36 316.531 389.256L316.531 388.264L320.67 384.124L350.353 384.124L358.884 392.655L377.116 392.655C377.22 393.438 377.886 394.046 378.698 394.046C379.583 394.046 380.302 393.327 380.302 392.442C380.302 391.557 379.583 390.838 378.698 390.838C377.888 390.836 377.224 391.444 377.118 392.227Z" fill="#315ED2"/>
<path d="M345.1 328.242C344.995 327.459 344.33 326.851 343.517 326.851C342.632 326.851 341.913 327.57 341.913 328.455C341.913 329.34 342.632 330.059 343.517 330.059C344.33 330.059 344.995 329.453 345.1 328.668L371.862 328.669L380.394 320.137L401.545 320.137L407.76 326.352C407.28 326.981 407.321 327.879 407.897 328.455C408.524 329.082 409.539 329.082 410.164 328.455C410.789 327.828 410.791 326.813 410.164 326.188C409.59 325.614 408.69 325.572 408.061 326.052L401.72 319.711L380.215 319.711L371.683 328.242L345.1 328.242V328.242Z" fill="#315ED2"/>
<path d="M360.055 345.305L324.761 345.305L282.105 387.961L272.582 387.961C272.477 387.178 271.812 386.57 270.999 386.57C270.114 386.57 269.395 387.289 269.395 388.174C269.395 389.059 270.114 389.778 270.999 389.778C271.812 389.778 272.477 389.173 272.582 388.388L282.282 388.388L324.938 345.731L360.055 345.731C360.16 346.514 360.825 347.122 361.638 347.122C362.523 347.122 363.242 346.403 363.242 345.518C363.242 344.633 362.523 343.914 361.638 343.914C360.825 343.914 360.162 344.522 360.055 345.305Z" fill="#315ED2"/>
<path d="M307.788 405.237C307.788 406.122 308.507 406.841 309.392 406.841C310.205 406.841 310.87 406.235 310.975 405.45L324.763 405.45L337.56 418.247L359.065 418.247L363.331 413.982L388.748 413.982L390.697 415.931C390.218 416.56 390.258 417.458 390.834 418.034C391.461 418.661 392.476 418.661 393.101 418.034C393.726 417.407 393.728 416.392 393.101 415.767C392.527 415.193 391.627 415.15 390.998 415.63L388.923 413.555L363.152 413.555L358.886 417.821L337.735 417.821L324.938 405.024L310.972 405.024C310.868 404.241 310.202 403.633 309.39 403.633C308.507 403.633 307.788 404.352 307.788 405.237Z" fill="#44BCFF"/>
<path d="M115.569 111.547L150.223 111.547L171.552 90.2185L222.211 90.2185L226.476 94.4842L256.865 94.4842L282.459 68.8903L303.258 68.8903L306.884 72.5161C305.997 73.8257 306.131 75.6215 307.291 76.7817C308.607 78.0977 310.74 78.0977 312.054 76.7817C313.368 75.4658 313.37 73.333 312.054 72.0192C310.894 70.8589 309.098 70.7245 307.788 71.6118L303.787 67.6106L281.93 67.6106L256.336 93.2045L227.005 93.2045L222.74 88.9389L171.023 88.9389L149.695 110.267L116.098 110.267L112.472 106.641C113.36 105.332 113.225 103.536 112.065 102.376C110.749 101.06 108.616 101.06 107.303 102.376C105.989 103.692 105.987 105.824 107.303 107.138C108.463 108.299 110.259 108.433 111.568 107.546L115.569 111.547Z" fill="#28B1CF"/>
<path d="M248.18 37.1495C248.142 37.1879 248.107 37.2221 248.069 37.2604C248.031 37.2988 247.996 37.333 247.958 37.3714C246.58 38.8686 246.619 41.2062 248.069 42.6565C249.558 44.1452 251.976 44.1452 253.465 42.6565C254.8 41.3213 254.937 39.2397 253.879 37.751L256.865 34.765L294.727 34.765L316.055 56.0933L342.178 56.0933L346.443 51.8277L369.365 51.8277C369.664 53.3804 371.029 54.5555 372.671 54.5555C374.531 54.5555 376.039 53.0476 376.039 51.1878C376.039 49.328 374.531 47.8201 372.671 47.8201C371.031 47.8201 369.664 48.9953 369.365 50.548L345.915 50.548L341.649 54.8136L316.584 54.8136L295.256 33.4853L256.336 33.4853L252.974 36.8467C251.528 35.8187 249.519 35.9168 248.18 37.1495ZM252.834 37.8918C252.987 38.0453 253.124 38.216 253.235 38.3951C253.951 39.5255 253.815 41.0441 252.834 42.0252C251.695 43.1598 249.839 43.1598 248.7 42.0252C247.566 40.8863 247.566 39.0307 248.7 37.8918C249.681 36.9107 251.2 36.7742 252.33 37.4908C252.51 37.6017 252.68 37.7382 252.834 37.8918Z" fill="#28B1CF"/>
<path d="M24.0561 26.2337L77.7095 26.2337L86.2408 17.7024L115.571 17.7024L153.962 56.0933L168.881 56.0933C169.18 57.646 170.545 58.8212 172.187 58.8212C174.047 58.8212 175.555 57.3133 175.555 55.4534C175.555 53.5936 174.047 52.0857 172.187 52.0857C170.547 52.0857 169.182 53.2609 168.881 54.8136L154.491 54.8136L116.1 16.4227L85.7119 16.4227L77.1806 24.954L24.0583 24.954C23.7597 23.4013 22.3947 22.2261 20.7524 22.2261C18.8926 22.2261 17.3846 23.7341 17.3846 25.5939C17.3846 27.4537 18.8926 28.9616 20.7524 28.9616C22.3904 28.9616 23.7554 27.7864 24.0561 26.2337Z" fill="#223884"/>
<path d="M86.8721 54.5555C88.732 54.5555 90.2399 53.0476 90.2399 51.1878C90.2399 49.328 88.732 47.8201 86.8721 47.8201C85.232 47.8201 83.867 48.9953 83.5662 50.548L24.054 50.5479C23.7554 48.9953 22.3904 47.8201 20.7481 47.8201C18.8883 47.8201 17.3804 49.328 17.3804 51.1878C17.3804 53.0476 18.8883 54.5555 20.7481 54.5555C22.3883 54.5555 23.7533 53.3803 24.054 51.8276L83.5662 51.8276C83.8648 53.3803 85.232 54.5555 86.8721 54.5555Z" fill="#28B1CF"/>
<path d="M120.099 73.0129C121.415 71.697 121.415 69.5641 120.099 68.2503C118.784 66.9365 116.651 66.9344 115.337 68.2503C114.177 69.4106 114.042 71.2064 114.929 72.516L111.304 76.1418L81.9731 76.1418L64.9104 59.0792L59.4248 59.0792C59.122 57.279 57.5522 55.9012 55.6668 55.9012C53.5595 55.9012 51.849 57.616 51.849 59.719C51.849 61.822 53.5595 63.5368 55.6668 63.5368C57.5522 63.5368 59.122 62.159 59.4248 60.3588L64.3815 60.3588L81.4441 77.4215L111.833 77.4215L115.834 73.4203C117.143 74.3075 118.939 74.1732 120.099 73.0129ZM55.6668 62.641C54.0543 62.641 52.7448 61.3314 52.7448 59.719C52.7448 58.1066 54.0543 56.797 55.6668 56.797C57.0574 56.797 58.2219 57.7739 58.512 59.0792L58.512 60.3588C58.2219 61.6641 57.0574 62.641 55.6668 62.641Z" fill="#28B1CF"/>
<path d="M27.8569 171.266L94.7721 171.266L98.7712 167.267C100.081 168.154 101.877 168.02 103.037 166.859C104.353 165.544 104.353 163.411 103.037 162.097C101.721 160.783 99.588 160.781 98.2742 162.097C97.114 163.257 96.9796 165.053 97.8669 166.363L94.2411 169.988L27.8569 169.988C27.5583 168.436 26.1933 167.26 24.551 167.26C22.6912 167.26 21.1832 168.768 21.1832 170.628C21.1832 172.488 22.6912 173.996 24.551 173.996C26.1911 173.994 27.5561 172.819 27.8569 171.266Z" fill="#28B1CF"/>
<path d="M27.8568 149.938L64.9125 149.938L86.2408 128.609L119.837 128.609L123.463 132.235C122.576 133.545 122.71 135.34 123.87 136.501C125.186 137.817 127.319 137.817 128.633 136.501C129.947 135.185 129.949 133.052 128.633 131.738C127.473 130.578 125.677 130.444 124.367 131.331L120.364 127.33L85.7097 127.33L64.3815 148.658L27.8568 148.658C27.5582 147.105 26.1932 145.93 24.5509 145.93C22.6911 145.93 21.1832 147.438 21.1832 149.298C21.1832 151.158 22.6911 152.665 24.5509 152.665C26.1911 152.665 27.5561 151.49 27.8568 149.938Z" fill="#28B1CF"/>
<path d="M350.445 102.376C350.445 104.479 352.155 106.193 354.262 106.193C356.148 106.193 357.718 104.816 358.021 103.015L367.243 103.015L405.634 141.406L437.615 141.406C437.914 142.959 439.279 144.134 440.921 144.134C442.781 144.134 444.289 142.626 444.289 140.766C444.289 138.907 442.781 137.399 440.921 137.399C439.281 137.399 437.914 138.574 437.615 140.127L406.163 140.127L367.772 101.736L358.021 101.736C357.718 99.9357 356.148 98.5579 354.262 98.5579C352.155 98.5579 350.445 100.273 350.445 102.376ZM357.108 101.736C357.155 101.941 357.18 102.154 357.18 102.376C357.18 102.597 357.155 102.811 357.108 103.015C356.818 104.321 355.653 105.298 354.262 105.298C352.65 105.298 351.34 103.988 351.34 102.376C351.34 100.763 352.65 99.4536 354.262 99.4536C355.653 99.4536 356.818 100.43 357.108 101.736Z" fill="#223884"/>
<path d="M203.555 154.203L230.742 154.203L252.07 175.532L290.99 175.532L299.521 167L322.443 167C322.741 168.553 324.106 169.728 325.749 169.728C327.608 169.728 329.116 168.22 329.116 166.36C329.116 164.501 327.608 162.993 325.749 162.993C324.109 162.993 322.741 164.168 322.443 165.721L298.992 165.721L290.461 174.252L252.599 174.252L231.271 152.924L203.555 152.924C203.256 151.371 201.891 150.196 200.249 150.196C198.389 150.196 196.881 151.704 196.881 153.563C196.881 155.423 198.389 156.931 200.249 156.931C201.889 156.931 203.256 155.756 203.555 154.203Z" fill="#28B1CF"/>
<path d="M214.08 190.965C214.033 190.918 213.991 190.871 213.944 190.824C213.897 190.777 213.85 190.734 213.803 190.687C212.464 189.48 210.476 189.386 209.038 190.41L192.88 174.252L136.898 174.252L124.101 187.049L27.8568 187.049C27.5583 185.496 26.1932 184.321 24.551 184.321C22.6911 184.321 21.1832 185.829 21.1832 187.689C21.1832 189.548 22.6911 191.056 24.551 191.056C26.1911 191.056 27.5561 189.881 27.8568 188.328L124.63 188.328L137.427 175.532L192.351 175.532L208.134 191.314C207.076 192.803 207.213 194.885 208.548 196.22C210.036 197.709 212.455 197.709 213.944 196.22C215.386 194.778 215.432 192.462 214.08 190.965ZM209.179 195.589C208.198 194.608 208.061 193.089 208.778 191.959C208.889 191.779 209.025 191.609 209.179 191.455C209.333 191.302 209.503 191.165 209.682 191.054C210.813 190.338 212.331 190.474 213.312 191.455C214.447 192.594 214.447 194.45 213.312 195.589C212.174 196.723 210.318 196.723 209.179 195.589Z" fill="#28B1CF"/>
<path d="M61.3358 115.812C61.6387 117.612 63.2085 118.99 65.0939 118.99C67.2011 118.99 68.9116 117.275 68.9116 115.173C68.9116 113.07 67.2011 111.355 65.0939 111.355C63.2085 111.355 61.6387 112.733 61.3358 114.533L27.859 114.533L27.8569 114.533C27.5583 112.98 26.1932 111.805 24.551 111.805C22.6911 111.805 21.1832 113.313 21.1832 115.172C21.1832 117.032 22.6911 118.54 24.551 118.54C26.1911 118.54 27.5561 117.365 27.8569 115.812L27.859 115.812L61.3358 115.812ZM65.0939 112.251C66.7063 112.251 68.0158 113.56 68.0158 115.173C68.0158 116.785 66.7063 118.094 65.0939 118.094C63.7033 118.094 62.5387 117.118 62.2487 115.812L62.2487 114.533C62.5387 113.227 63.7033 112.251 65.0939 112.251Z" fill="#223884"/>
<path d="M179.819 247.905C181.135 246.589 181.135 244.456 179.819 243.142C178.503 241.828 176.37 241.826 175.056 243.142C173.896 244.302 173.761 246.098 174.649 247.408L166.757 255.299L124.63 255.299L103.301 233.971L72.9128 233.971L64.3815 242.502L27.8568 242.502C27.5583 240.95 26.1932 239.774 24.551 239.774C22.6911 239.774 21.1832 241.282 21.1832 243.142C21.1832 245.002 22.6911 246.51 24.551 246.51C26.1911 246.51 27.5561 245.335 27.8568 243.782L64.9126 243.782L73.4439 235.251L102.775 235.251L124.103 256.579L167.288 256.579L175.553 248.314C176.862 249.201 178.658 249.065 179.819 247.905Z" fill="#28B1CF"/>
<path d="M493.069 201.125C493.367 202.678 494.732 203.853 496.375 203.853C498.235 203.853 499.742 202.345 499.742 200.486C499.742 198.626 498.235 197.118 496.375 197.118C494.735 197.118 493.367 198.293 493.069 199.846L444.025 199.846L422.696 221.174L393.366 221.174L385.474 213.283C386.361 211.973 386.227 210.177 385.067 209.017C383.751 207.701 381.618 207.701 380.304 209.017C378.99 210.333 378.988 212.466 380.304 213.78C381.464 214.94 383.26 215.074 384.57 214.187L392.835 222.452L423.223 222.452L444.551 201.123L493.069 201.123L493.069 201.125Z" fill="#28B1CF"/>
<path d="M449.51 225.44L444.025 225.44L409.524 259.94L409.524 265.426C407.724 265.729 406.346 267.298 406.346 269.184C406.346 271.291 408.061 273.002 410.164 273.002C412.267 273.002 413.982 271.291 413.982 269.184C413.982 267.298 412.604 265.729 410.804 265.426L410.804 260.469L444.554 226.719L449.51 226.719C449.813 228.519 451.383 229.897 453.268 229.897C455.375 229.897 457.086 228.182 457.086 226.079C457.086 223.977 455.375 222.262 453.268 222.262C451.383 222.262 449.813 223.64 449.51 225.44ZM413.086 269.184C413.086 270.796 411.776 272.106 410.164 272.106C408.551 272.106 407.242 270.796 407.242 269.184C407.242 267.793 408.219 266.629 409.524 266.339C409.729 266.292 409.942 266.266 410.164 266.266C410.386 266.266 410.599 266.292 410.804 266.339C412.109 266.629 413.086 267.793 413.086 269.184ZM456.19 226.079C456.19 227.692 454.881 229.001 453.268 229.001C451.878 229.001 450.713 228.025 450.423 226.719C450.376 226.515 450.351 226.301 450.351 226.079C450.351 225.858 450.376 225.644 450.423 225.44C450.713 224.134 451.878 223.158 453.268 223.158C454.881 223.158 456.19 224.467 456.19 226.079Z" fill="#28B1CF"/>
<path d="M120.739 291.608L128.366 299.235L163.02 299.235L175.817 286.438L227.005 286.438L286.724 226.719L313.909 226.719L313.912 226.719C314.21 228.272 315.575 229.447 317.217 229.447C319.077 229.447 320.585 227.939 320.585 226.079C320.585 224.22 319.077 222.712 317.217 222.712C315.577 222.712 314.21 223.887 313.912 225.44L313.909 225.44L286.195 225.44L226.476 285.159L175.288 285.159L162.492 297.956L128.895 297.956L121.644 290.704C122.667 289.267 122.574 287.279 121.366 285.939C121.319 285.892 121.277 285.846 121.23 285.799C121.183 285.752 121.136 285.709 121.089 285.662C119.592 284.31 117.276 284.357 115.834 285.799C114.345 287.287 114.345 289.706 115.834 291.195C117.169 292.53 119.251 292.666 120.739 291.608ZM116.465 286.43C117.604 285.295 119.46 285.295 120.599 286.43C121.58 287.411 121.716 288.93 121 290.06L120.095 290.964C118.965 291.681 117.446 291.544 116.465 290.563C115.33 289.424 115.33 287.569 116.465 286.43Z" fill="#28B1CF"/>
<path d="M86.8721 272.104C88.732 272.104 90.2399 270.596 90.2399 268.736C90.2399 266.876 88.732 265.368 86.8721 265.368C85.232 265.368 83.867 266.543 83.5662 268.096L27.8568 268.096C27.5582 266.543 26.1932 265.368 24.551 265.368C22.6911 265.368 21.1832 266.876 21.1832 268.736C21.1832 270.596 22.6911 272.104 24.551 272.104C26.1911 272.104 27.5561 270.929 27.8568 269.376L83.5662 269.376C83.8648 270.929 85.232 272.104 86.8721 272.104Z" fill="#28B1CF"/>
<path d="M103.037 306.63C101.877 305.47 100.081 305.335 98.7713 306.223L85.8229 293.274L27.8569 293.274C27.5583 291.721 26.1933 290.546 24.551 290.546C22.6912 290.546 21.1833 292.054 21.1833 293.914C21.1833 295.774 22.6912 297.282 24.551 297.282C26.1912 297.282 27.5583 296.107 27.8569 294.554L85.2939 294.554L97.8669 307.127C96.9797 308.436 97.114 310.232 98.2743 311.393C99.5902 312.708 101.723 312.708 103.037 311.393C104.351 310.077 104.353 307.944 103.037 306.63Z" fill="#28B1CF"/>
<path d="M214.208 319.284L183.82 319.284L162.491 340.612L140.472 340.612C140.169 338.812 138.6 337.434 136.714 337.434C134.607 337.434 132.896 339.149 132.896 341.252C132.896 343.355 134.607 345.07 136.714 345.07C138.6 345.07 140.169 343.692 140.472 341.892L163.02 341.892L184.349 320.564L213.679 320.564L222.211 329.095L273.927 329.095L286.724 316.298L352.3 316.298L352.302 316.298C352.601 317.851 353.966 319.026 355.608 319.026C357.468 319.026 358.976 317.518 358.976 315.658C358.976 313.798 357.468 312.29 355.608 312.29C353.968 312.29 352.601 313.466 352.302 315.018L352.3 315.018L286.195 315.018L273.398 327.815L222.74 327.815L214.208 319.284ZM136.714 344.174C135.102 344.174 133.792 342.865 133.792 341.252C133.792 339.64 135.102 338.33 136.714 338.33C138.105 338.33 139.269 339.307 139.559 340.612L139.559 341.892C139.269 343.197 138.105 344.174 136.714 344.174Z" fill="#223884"/>
<path d="M27.8568 350.423L99.0377 350.423L111.568 337.893C112.878 338.78 114.673 338.646 115.834 337.486C117.15 336.17 117.15 334.037 115.834 332.723C114.518 331.409 112.385 331.407 111.071 332.723C109.911 333.883 109.776 335.679 110.664 336.989L98.5066 349.146L27.8568 349.146C27.5582 347.593 26.1932 346.418 24.5509 346.418C22.6911 346.418 21.1831 347.926 21.1831 349.786C21.1831 351.645 22.6911 353.153 24.5509 353.153C26.191 353.151 27.556 351.976 27.8568 350.423Z" fill="#28B1CF"/>
<path d="M27.8569 419.085L81.5636 419.085L94.7721 405.877L132.634 405.877L136.9 410.142L168.881 410.142C169.18 411.695 170.545 412.87 172.187 412.87C174.047 412.87 175.555 411.362 175.555 409.503C175.555 407.643 174.047 406.135 172.187 406.135C170.547 406.135 169.182 407.31 168.881 408.863L137.429 408.863L133.163 404.597L94.2432 404.597L81.0346 417.806L27.859 417.806C27.5604 416.253 26.1954 415.078 24.5531 415.078C22.6933 415.078 21.1854 416.586 21.1854 418.445C21.1854 420.305 22.6933 421.813 24.5531 421.813C26.1911 421.813 27.5561 420.638 27.8569 419.085Z" fill="#223884"/>
<path d="M78.3409 387.276C80.2007 387.276 81.7086 385.768 81.7086 383.909C81.7086 382.049 80.2007 380.541 78.3409 380.541C76.7007 380.541 75.3357 381.716 75.035 383.269L27.8569 383.269C27.5583 381.716 26.1933 380.541 24.551 380.541C22.6912 380.541 21.1833 382.049 21.1833 383.909C21.1833 385.768 22.6912 387.276 24.551 387.276C26.1912 387.276 27.5562 386.101 27.8569 384.548L75.035 384.548C75.3336 386.101 76.7007 387.276 78.3409 387.276Z" fill="#28B1CF"/>
<path d="M324.586 370.472L277.664 417.394L259.91 417.394C259.608 415.594 258.038 414.216 256.152 414.216C254.045 414.216 252.335 415.931 252.335 418.034C252.335 420.137 254.045 421.852 256.152 421.852C258.038 421.852 259.608 420.474 259.91 418.674L278.193 418.674L325.115 371.752L335.238 371.752L335.24 371.752C335.538 373.304 336.903 374.479 338.546 374.479C340.405 374.479 341.913 372.972 341.913 371.112C341.913 369.252 340.405 367.744 338.546 367.744C336.905 367.744 335.538 368.919 335.24 370.472L335.238 370.472L324.586 370.472ZM256.152 420.956C254.54 420.956 253.23 419.646 253.23 418.034C253.23 416.421 254.54 415.112 256.152 415.112C257.543 415.112 258.708 416.089 258.998 417.394L258.998 418.674C258.708 419.979 257.543 420.956 256.152 420.956Z" fill="#28B1CF"/>
<path d="M345.56 197.713L379.686 231.838L427.845 231.838L444.908 214.776L470.139 214.776C470.813 217.565 473.33 219.643 476.32 219.643C479.826 219.643 482.68 216.789 482.68 213.283C482.68 209.776 479.826 206.923 476.32 206.923C473.33 206.923 470.813 209 470.139 211.79L443.67 211.79L426.608 228.852L380.923 228.852L346.798 194.727L298.638 194.727L230.388 262.977L124.984 262.977L112.187 250.181L12.5367 250.181C11.8627 247.391 9.34602 245.313 6.35579 245.313C2.84943 245.313 -3.8444e-05 248.167 -3.85972e-05 251.673C-3.87505e-05 255.18 2.84943 258.034 6.35579 258.034C9.34602 258.034 11.8627 255.956 12.5367 253.166L110.95 253.166L123.747 265.963L231.625 265.963L299.875 197.713L345.56 197.713ZM476.32 208.416C479.003 208.416 481.187 210.6 481.187 213.283C481.187 215.966 479.003 218.15 476.32 218.15C474.157 218.15 472.319 216.729 471.687 214.776C471.534 214.302 471.453 213.803 471.453 213.283C471.453 212.762 471.534 212.263 471.687 211.79C472.319 209.836 474.157 208.416 476.32 208.416ZM6.35579 256.541C3.6727 256.541 1.49294 254.357 1.49294 251.673C1.49294 248.99 3.6727 246.806 6.35579 246.806C8.52275 246.806 10.357 248.227 10.9883 250.181L10.9883 253.166C10.357 255.12 8.52274 256.541 6.35579 256.541Z" fill="#1170C7"/>
<path d="M180.074 189.182C180.748 191.971 183.265 194.049 186.255 194.049C189.762 194.049 192.615 191.195 192.615 187.689C192.615 184.182 189.762 181.329 186.255 181.329C183.265 181.329 180.748 183.406 180.074 186.196L166.403 186.196L136.544 216.055L90.8583 216.055L73.7957 198.993L12.5367 198.993C11.8627 196.203 9.346 194.126 6.35577 194.126C2.84941 194.126 -5.90977e-05 196.979 -5.9251e-05 200.486C-5.94042e-05 203.992 2.84941 206.846 6.35577 206.846C9.34599 206.846 11.8627 204.768 12.5367 201.979L72.5587 201.979L89.6213 219.041L137.78 219.041L167.64 189.182L180.074 189.182ZM6.35577 205.353C3.67268 205.353 1.49292 203.169 1.49292 200.486C1.49292 197.803 3.67268 195.619 6.35577 195.619C8.52272 195.619 10.3569 197.039 10.9883 198.993L10.9883 201.979C10.3569 203.932 8.52272 205.353 6.35577 205.353ZM186.255 182.822C188.938 182.822 191.123 185.006 191.123 187.689C191.122 190.372 188.938 192.556 186.255 192.556C184.093 192.556 182.254 191.135 181.623 189.182C181.469 188.708 181.388 188.209 181.388 187.689C181.388 187.168 181.469 186.669 181.623 186.196C182.254 184.242 184.093 182.822 186.255 182.822Z" fill="#223884"/>
<path d="M244.422 295.823L257.219 283.026L294.373 283.026L311.435 300.089L325.107 300.089C325.781 302.878 328.297 304.956 331.288 304.956C334.794 304.956 337.648 302.102 337.648 298.596C337.648 295.089 334.794 292.236 331.288 292.236C328.297 292.236 325.781 294.313 325.107 297.103L312.672 297.103L295.61 280.04L255.982 280.04L243.185 292.837L196.263 292.837L170.669 318.431L86.5927 318.431L73.7958 305.634L12.5367 305.634C11.8628 302.844 9.34603 300.767 6.35581 300.767C2.84944 300.767 -2.45026e-05 303.621 -2.46559e-05 307.127C-2.48091e-05 310.633 2.84944 313.487 6.35581 313.487C9.34603 313.487 11.8628 311.41 12.5367 308.62L72.5588 308.62L85.3557 321.417L171.906 321.417L197.5 295.823L244.422 295.823ZM331.288 293.729C333.971 293.729 336.155 295.913 336.155 298.596C336.155 301.279 333.971 303.463 331.288 303.463C329.125 303.463 327.286 302.042 326.655 300.089C326.502 299.615 326.421 299.116 326.421 298.596C326.421 298.075 326.502 297.576 326.655 297.103C327.286 295.149 329.125 293.729 331.288 293.729ZM6.35581 311.994C3.67271 311.994 1.49295 309.81 1.49295 307.127C1.49295 304.444 3.67271 302.26 6.35581 302.26C8.52276 302.26 10.357 303.68 10.9883 305.634L10.9883 308.62C10.357 310.574 8.52276 311.994 6.35581 311.994Z" fill="#1170C7"/>
<path d="M12.5368 180.65L120.718 180.65L163.374 137.994L230.388 137.994L246.678 154.284C245.181 156.733 245.488 159.979 247.608 162.095C250.087 164.573 254.122 164.573 256.6 162.095C259.079 159.616 259.079 155.581 256.6 153.103C254.485 150.983 251.238 150.676 248.79 152.173L231.625 135.008L162.137 135.008L119.481 177.664L12.5368 177.664C11.8628 174.875 9.34606 172.797 6.35583 172.797C2.84947 172.797 1.04162e-06 175.651 8.88348e-07 179.157C7.3508e-07 182.664 2.84947 185.518 6.35583 185.518C9.34606 185.518 11.8628 183.44 12.5368 180.65ZM255.547 154.156C257.441 156.055 257.441 159.143 255.547 161.041C253.657 162.927 250.59 162.935 248.692 161.067L248.734 161.114L248.662 161.041C248.632 161.011 248.607 160.986 248.585 160.96C248.534 160.913 248.496 160.875 248.483 160.858C248.479 160.854 248.474 160.849 248.474 160.849C247.109 159.322 246.875 157.134 247.77 155.376C247.997 154.937 248.295 154.523 248.662 154.156C249.029 153.79 249.443 153.491 249.882 153.265C251.712 152.331 254.015 152.625 255.547 154.156ZM1.49298 179.157C1.49298 176.474 3.67274 174.29 6.35583 174.29C8.52279 174.29 10.357 175.711 10.9883 177.664L10.9883 180.65C10.357 182.604 8.52278 184.025 6.35583 184.025C3.67274 184.025 1.49298 181.841 1.49298 179.157Z" fill="#1170C7"/>
<path d="M124.109 150.791L133.515 150.791L171.906 112.4L209.06 112.4L217.591 120.931L291.344 120.931L299.978 112.298C302.426 113.795 305.672 113.488 307.788 111.368C310.266 108.889 310.266 104.854 307.788 102.376C305.31 99.8973 301.274 99.8973 298.796 102.376C296.676 104.491 296.369 107.738 297.866 110.186L290.107 117.945L218.828 117.945L210.297 109.414L170.669 109.414L132.278 147.805L124.109 147.805C123.435 145.015 120.918 142.938 117.928 142.938C114.422 142.938 111.568 145.791 111.568 149.298C111.568 152.804 114.422 155.658 117.928 155.658C120.918 155.658 123.435 153.58 124.109 150.791ZM298.958 109.094C298.058 107.332 298.297 105.135 299.675 103.608C299.709 103.574 299.743 103.54 299.773 103.51C299.794 103.485 299.82 103.459 299.85 103.429L299.922 103.357L299.88 103.404C301.778 101.535 304.845 101.544 306.735 103.429C308.628 105.327 308.628 108.416 306.735 110.314C305.203 111.845 302.9 112.14 301.07 111.206C300.63 110.979 300.217 110.681 299.85 110.314C299.483 109.947 299.184 109.533 298.958 109.094ZM113.061 149.298C113.061 146.615 115.245 144.431 117.928 144.431C120.091 144.431 121.929 145.851 122.561 147.805C122.714 148.278 122.795 148.777 122.795 149.298C122.795 149.818 122.714 150.317 122.561 150.791C121.929 152.744 120.091 154.165 117.928 154.165C115.245 154.165 113.061 151.981 113.061 149.298Z" fill="#223884"/>
<path d="M337.029 65.4777L388.217 116.666L401.888 116.666C402.562 119.455 405.079 121.533 408.069 121.533C411.576 121.533 414.429 118.679 414.429 115.173C414.429 111.666 411.576 108.813 408.069 108.813C405.079 108.813 402.562 110.89 401.888 113.68L389.454 113.68L338.266 62.4918L277.31 62.4918L260.247 79.5544L150.578 79.5544L107.921 36.8979L12.5368 36.8979C11.8628 34.1081 9.34606 32.0307 6.35583 32.0307C2.84947 32.0307 2.25842e-06 34.8845 2.10515e-06 38.3908C1.95188e-06 41.8972 2.84947 44.7509 6.35583 44.7509C9.34606 44.7509 11.8628 42.6735 12.5368 39.8838L106.684 39.8838L149.341 82.5403L261.484 82.5403L278.547 65.4777L337.029 65.4777ZM408.069 110.305C410.752 110.305 412.936 112.489 412.936 115.173C412.936 117.856 410.752 120.04 408.069 120.04C405.907 120.04 404.068 118.619 403.437 116.666C403.283 116.192 403.202 115.693 403.202 115.173C403.202 114.652 403.283 114.153 403.437 113.68C404.068 111.726 405.907 110.305 408.069 110.305ZM6.35583 43.2579C3.67274 43.2579 1.49298 41.0739 1.49298 38.3908C1.49298 35.7077 3.67274 33.5237 6.35583 33.5237C8.52279 33.5237 10.357 34.9442 10.9883 36.8979L10.9883 39.8838C10.357 41.8375 8.52278 43.2579 6.35583 43.2579Z" fill="#1170C7"/>
<path d="M226.122 402.464L287.078 402.464L329.735 359.808L367.763 359.808C368.437 362.598 370.954 364.675 373.944 364.675C377.451 364.675 380.304 361.821 380.304 358.315C380.304 354.808 377.451 351.955 373.944 351.955C370.954 351.955 368.437 354.032 367.763 356.822L328.498 356.822L285.841 399.478L227.359 399.478L210.297 382.416L162.138 382.416L149.341 395.213L107.921 395.213L82.3271 369.619L12.5368 369.619C11.8628 366.829 9.34609 364.752 6.35587 364.752C2.8495 364.752 3.46008e-05 367.605 3.44475e-05 371.112C3.42943e-05 374.618 2.8495 377.472 6.35587 377.472C9.34609 377.472 11.8628 375.394 12.5368 372.605L81.0901 372.605L106.684 398.199L150.578 398.199L163.375 385.402L209.06 385.402L226.122 402.464ZM373.944 353.448C376.627 353.448 378.811 355.632 378.811 358.315C378.811 360.998 376.627 363.182 373.944 363.182C371.781 363.182 369.943 361.761 369.312 359.808C369.158 359.334 369.077 358.835 369.077 358.315C369.077 357.794 369.158 357.295 369.312 356.822C369.943 354.868 371.781 353.448 373.944 353.448ZM6.35587 375.979C3.67277 375.979 1.49301 373.795 1.49301 371.112C1.49301 368.429 3.67277 366.245 6.35587 366.245C8.52282 366.245 10.357 367.665 10.9884 369.619L10.9884 372.605C10.357 374.558 8.52282 375.979 6.35587 375.979Z" fill="#1170C7"/>
<path d="M127.91 368.237L136.544 376.87L197.5 376.87L206.031 368.339L235.528 368.339C236.202 371.129 238.719 373.206 241.709 373.206C245.215 373.206 248.069 370.352 248.069 366.846C248.069 363.34 245.215 360.486 241.709 360.486C238.719 360.486 236.202 362.563 235.528 365.353L204.794 365.353L196.263 373.884L137.781 373.884L130.021 366.125C131.519 363.677 131.211 360.431 129.091 358.315C126.613 355.836 122.578 355.836 120.099 358.315C117.621 360.793 117.621 364.828 120.099 367.307C122.215 369.427 125.461 369.734 127.91 368.237ZM241.709 361.979C244.392 361.979 246.576 364.163 246.576 366.846C246.576 369.529 244.392 371.713 241.709 371.713C239.546 371.713 237.708 370.293 237.076 368.339C236.923 367.866 236.842 367.367 236.842 366.846C236.842 366.326 236.923 365.827 237.076 365.353C237.708 363.399 239.546 361.979 241.709 361.979ZM121.337 366.432C121.319 366.42 121.285 366.381 121.234 366.33C121.209 366.309 121.183 366.283 121.153 366.253C121.127 366.228 121.102 366.202 121.081 366.181L121.127 366.223C119.259 364.325 119.268 361.258 121.153 359.368C123.051 357.474 126.14 357.474 128.038 359.368C129.569 360.9 129.864 363.203 128.929 365.033L126.818 367.145C125.06 368.04 122.872 367.806 121.345 366.441C121.345 366.441 121.341 366.437 121.337 366.432Z" fill="#223884"/>
</g>
</svg>
