<svg width="87" height="578" viewBox="0 0 87 578" fill="none" xmlns="http://www.w3.org/2000/svg">
<g opacity="0.68">
<path d="M15 -66L15 -108L15 -134L123.5 -134C145.5 -134 132.667 322 123.5 575L61 513L61 460.5L49 448L49 408.5L61 396L61 247.5L15 201L15 41L1.00001 27L1 -52L15 -66Z" fill="white"/>
<path d="M60.5 513L60.5 460.701L48.6393 448.346L48.5 448.201L48.5 448L48.5 408.5L48.5 408.299L48.6393 408.154L60.5 395.799L60.5 247.706L14.6446 201.352L14.5 201.206L14.5 201L14.5 41.2071L0.646454 27.3535L0.500007 27.2071L0.500007 27L0.500004 -52L0.500004 -52.2071L0.64645 -52.3536L14.5 -66.2071L14.5 -108L14.5 -134L14.5 -134.5L15 -134.5L123.5 -134.5C124.427 -134.5 125.211 -133.897 125.869 -132.974C126.532 -132.044 127.139 -130.692 127.701 -128.973C128.828 -125.526 129.819 -120.468 130.688 -113.979C132.428 -100.991 133.696 -82.1708 134.57 -58.8156C136.318 -12.0999 136.49 52.8162 135.687 125.63C134.083 271.262 128.583 448.517 124 575.018L123.958 576.159L123.148 575.355L60.6479 513.355L60.5 513.208L60.5 513Z" stroke="#217AFF" stroke-opacity="0.4"/>
</g>
<path d="M55 188C55 189.657 53.6569 191 52 191C50.3431 191 49 189.657 49 188" stroke="#217AFF" stroke-width="2"/>
<path d="M60.1315 185L52 172.803L43.8685 185L60.1315 185Z" stroke="#217AFF" stroke-width="2"/>
<path d="M28.5 194V194.207L28.6464 194.354L41.6464 207.354L41.7929 207.5H42H74H74.5V207V167V166.793L74.3536 166.646L64.3536 156.646L64.2071 156.5H64H29H28.5V157V194Z" stroke="#217AFF" stroke-opacity="0.2"/>
</svg>
