<svg width="1848" height="845" viewBox="0 0 1848 845" fill="none" xmlns="http://www.w3.org/2000/svg">
<path d="M160.831 253H60.3212V66.7H86.3112V234.37H139.211V66.7H165.201V234.37H182.911V286.81H162.901L160.831 253ZM208.227 120.06H228.927V209.53L268.947 120.06H288.267V253H268.027V162.84L228.237 253H208.227V120.06ZM366.015 245.64H363.715C350.988 245.64 340.101 242.037 331.055 234.83C322.161 227.47 317.715 214.13 317.715 194.81V170.89C317.715 154.637 321.931 142.523 330.365 134.55C338.798 126.423 349.685 122.36 363.025 122.36H366.015V66.7H388.785V122.36H392.695C405.881 122.36 416.615 126.347 424.895 134.32C433.175 142.293 437.315 154.483 437.315 170.89V194.81C437.315 214.13 432.945 227.47 424.205 234.83C415.465 242.037 404.731 245.64 392.005 245.64H388.785V296.7H366.015V245.64ZM366.015 228.16V138.46H363.715C355.895 138.46 349.991 140.53 346.005 144.67C342.018 148.81 340.025 156.323 340.025 167.21V194.58C340.025 207.307 341.941 216.123 345.775 221.03C349.761 225.783 355.971 228.16 364.405 228.16H366.015ZM390.165 228.16C398.598 228.16 404.808 225.783 408.795 221.03C412.935 216.123 415.005 207.307 415.005 194.58V167.21C415.005 156.323 412.935 148.81 408.795 144.67C404.808 140.53 398.828 138.46 390.855 138.46H388.785V228.16H390.165ZM466.627 120.06H491.237V130.64C498.444 122.36 506.877 118.22 516.537 118.22C528.65 118.22 536.7 123.433 540.687 133.86C544.827 144.133 546.897 155.557 546.897 168.13V200.33C546.897 216.583 544.367 229.77 539.307 239.89C534.4 249.857 525.89 254.84 513.777 254.84C505.957 254.84 498.444 250.93 491.237 243.11V296.7H466.627V120.06ZM508.947 235.52C514.62 235.52 518.224 232.683 519.757 227.01C521.444 221.183 522.287 212.29 522.287 200.33V168.13C522.287 158.317 521.367 150.803 519.527 145.59C517.687 140.223 513.854 137.54 508.027 137.54C502.354 137.54 496.757 139.84 491.237 144.44V229.54C496.604 233.527 502.507 235.52 508.947 235.52ZM612.743 254.84C598.637 254.84 588.593 250.7 582.613 242.42C576.787 233.987 573.873 221.797 573.873 205.85V167.21C573.873 151.263 576.787 139.15 582.613 130.87C588.593 122.437 598.637 118.22 612.743 118.22C626.697 118.22 636.587 122.437 642.413 130.87C648.393 139.15 651.383 151.263 651.383 167.21V205.85C651.383 221.797 648.393 233.987 642.413 242.42C636.587 250.7 626.697 254.84 612.743 254.84ZM612.743 236.67C617.19 236.67 620.41 235.367 622.403 232.76C624.397 230.153 625.623 226.933 626.083 223.1C626.543 219.267 626.773 214.053 626.773 207.46V165.83C626.773 159.237 626.543 154.023 626.083 150.19C625.623 146.203 624.397 142.907 622.403 140.3C620.41 137.693 617.19 136.39 612.743 136.39C608.297 136.39 605 137.693 602.853 140.3C600.86 142.907 599.633 146.203 599.173 150.19C598.713 154.023 598.483 159.237 598.483 165.83V207.46C598.483 214.053 598.713 219.267 599.173 223.1C599.633 226.933 600.86 230.153 602.853 232.76C605 235.367 608.297 236.67 612.743 236.67ZM680.779 120.06H718.039C730.765 120.06 739.889 123.127 745.409 129.26C751.082 135.393 753.919 143.29 753.919 152.95C753.919 160.003 752.615 165.907 750.009 170.66C747.402 175.26 742.879 178.557 736.439 180.55C743.952 182.083 749.242 185.917 752.309 192.05C755.529 198.183 757.139 205.62 757.139 214.36C757.139 226.933 754.302 236.517 748.629 243.11C742.955 249.703 733.142 253 719.189 253H680.779V120.06ZM716.889 173.65C721.949 173.65 725.782 172.193 728.389 169.28C730.995 166.367 732.299 161.537 732.299 154.79C732.299 148.81 730.765 144.517 727.699 141.91C724.632 139.303 720.185 138 714.359 138H704.929V173.65H716.889ZM713.669 234.37C719.802 234.37 724.555 232.913 727.929 230C731.302 227.087 732.989 221.567 732.989 213.44C732.989 206.847 732.222 202.017 730.689 198.95C729.155 195.73 727.162 193.66 724.709 192.74C722.255 191.82 718.959 191.36 714.819 191.36H704.929V234.37H713.669ZM807.058 254.84C801.998 254.84 797.398 253.383 793.258 250.47C789.271 247.557 786.128 243.723 783.828 238.97C781.528 234.217 780.378 229.233 780.378 224.02C780.378 213.593 782.601 205.16 787.048 198.72C791.494 192.127 797.168 186.913 804.068 183.08C810.968 179.247 820.551 174.877 832.818 169.97V160.54C832.818 151.8 831.898 145.667 830.058 142.14C828.371 138.46 824.844 136.62 819.478 136.62C810.124 136.62 805.448 142.907 805.448 155.48V162.15L781.068 161.23C781.374 146.51 784.748 135.7 791.188 128.8C797.628 121.747 807.594 118.22 821.088 118.22C833.814 118.22 843.014 121.747 848.688 128.8C854.514 135.7 857.428 146.203 857.428 160.31V221.03C857.428 230.997 858.194 241.653 859.728 253H837.188C835.501 244.26 834.428 237.743 833.968 233.45C832.128 239.43 828.908 244.49 824.308 248.63C819.861 252.77 814.111 254.84 807.058 254.84ZM816.718 233.68C819.938 233.68 823.081 232.453 826.148 230C829.214 227.393 831.438 224.94 832.818 222.64V184.92C826.224 188.6 821.088 191.82 817.408 194.58C813.881 197.187 810.891 200.253 808.438 203.78C806.138 207.307 804.988 211.523 804.988 216.43C804.988 221.95 805.984 226.243 807.978 229.31C809.971 232.223 812.884 233.68 816.718 233.68ZM902.917 196.65C890.804 192.05 884.747 179.86 884.747 160.08C884.747 150.573 886.357 142.907 889.577 137.08C892.951 131.253 898.394 126.96 905.907 124.2C913.574 121.44 923.771 120.06 936.497 120.06H962.257V253H937.877V200.56C935.271 200.56 931.361 200.407 926.147 200.1L904.297 253H877.847L902.917 196.65ZM937.877 186.3V134.09H935.347C924.614 134.243 917.177 136.237 913.037 140.07C908.897 143.903 906.827 150.573 906.827 160.08C906.827 169.127 908.821 175.72 912.807 179.86C916.947 184 924.384 186.147 935.117 186.3H937.877ZM1102.36 255.07C1083.96 255.07 1071.01 249.627 1063.49 238.74C1055.98 227.7 1052.22 212.52 1052.22 193.2V127.42C1052.22 107.027 1055.9 91.54 1063.26 80.96C1070.62 70.38 1083.66 65.09 1102.36 65.09C1119.08 65.09 1131.04 69.6133 1138.24 78.66C1145.6 87.7067 1149.28 101.047 1149.28 118.68V133.4H1124.67V120.29C1124.67 111.703 1124.29 105.11 1123.52 100.51C1122.76 95.91 1120.76 92.23 1117.54 89.47C1114.48 86.71 1109.49 85.33 1102.59 85.33C1095.54 85.33 1090.25 86.8633 1086.72 89.93C1083.35 92.8433 1081.13 96.9833 1080.05 102.35C1078.98 107.563 1078.44 114.617 1078.44 123.51V197.34C1078.44 206.847 1079.21 214.283 1080.74 219.65C1082.28 225.017 1084.73 228.85 1088.1 231.15C1091.63 233.45 1096.46 234.6 1102.59 234.6C1109.19 234.6 1114.09 233.143 1117.31 230.23C1120.53 227.317 1122.53 223.33 1123.29 218.27C1124.21 213.21 1124.67 206.31 1124.67 197.57V183.77H1149.28V197.57C1149.28 216.123 1145.76 230.383 1138.7 240.35C1131.8 250.163 1119.69 255.07 1102.36 255.07ZM1178.87 120.06H1199.57V209.53L1239.59 120.06H1258.91V253H1238.67V162.84L1198.88 253H1178.87V120.06ZM1327.23 254.84C1316.8 254.84 1308.75 252.77 1303.08 248.63C1297.41 244.337 1293.5 238.433 1291.35 230.92C1289.36 223.253 1288.36 213.593 1288.36 201.94V171.35C1288.36 159.39 1289.36 149.577 1291.35 141.91C1293.5 134.243 1297.41 128.417 1303.08 124.43C1308.75 120.29 1316.8 118.22 1327.23 118.22C1336.74 118.22 1344.1 119.753 1349.31 122.82C1354.68 125.887 1358.36 130.487 1360.35 136.62C1362.5 142.6 1363.57 150.42 1363.57 160.08V167.9H1341.26V159.85C1341.26 151.11 1340.26 145.053 1338.27 141.68C1336.43 138.153 1332.83 136.39 1327.46 136.39C1323.32 136.39 1320.25 137.31 1318.26 139.15C1316.27 140.99 1314.89 143.98 1314.12 148.12C1313.35 152.26 1312.97 158.317 1312.97 166.29V208.15C1312.97 215.817 1313.43 221.72 1314.35 225.86C1315.27 229.847 1316.73 232.683 1318.72 234.37C1320.87 235.903 1323.86 236.67 1327.69 236.67C1333.36 236.67 1337.04 234.83 1338.73 231.15C1340.42 227.317 1341.26 221.49 1341.26 213.67V202.86H1363.57V212.06C1363.57 226.473 1360.89 237.207 1355.52 244.26C1350.31 251.313 1340.88 254.84 1327.23 254.84ZM1407.3 138.46H1382.46V120.06H1456.98V138.46H1431.91V253H1407.3V138.46ZM1514.21 254.84C1503.94 254.84 1495.97 252.923 1490.29 249.09C1484.62 245.103 1480.63 239.277 1478.33 231.61C1476.03 223.943 1474.88 213.977 1474.88 201.71V171.35C1474.88 152.95 1477.72 139.533 1483.39 131.1C1489.22 122.513 1499.49 118.22 1514.21 118.22C1524.95 118.22 1533 120.443 1538.36 124.89C1543.88 129.337 1547.49 135.623 1549.17 143.75C1551.01 151.723 1551.93 162.533 1551.93 176.18V186.99H1499.49V213.67C1499.49 221.797 1500.64 227.7 1502.94 231.38C1505.4 234.907 1509.23 236.67 1514.44 236.67C1519.66 236.67 1523.18 234.907 1525.02 231.38C1526.86 227.7 1527.78 222.18 1527.78 214.82V206.77H1551.7V211.83C1551.7 225.783 1548.71 236.44 1542.73 243.8C1536.75 251.16 1527.25 254.84 1514.21 254.84ZM1527.78 173.65V161.69C1527.78 152.643 1526.86 146.203 1525.02 142.37C1523.34 138.383 1519.66 136.39 1513.98 136.39C1510 136.39 1506.93 137.31 1504.78 139.15C1502.79 140.99 1501.41 144.057 1500.64 148.35C1499.88 152.49 1499.49 158.547 1499.49 166.52V173.65H1527.78ZM1581.81 120.06H1599.98L1629.42 201.71L1659.09 120.06H1677.26L1678.64 253H1657.94V173.65L1633.33 239.89H1625.74L1601.13 174.11V253H1580.43L1581.81 120.06ZM1733.68 254.84C1728.62 254.84 1724.02 253.383 1719.88 250.47C1715.89 247.557 1712.75 243.723 1710.45 238.97C1708.15 234.217 1707 229.233 1707 224.02C1707 213.593 1709.22 205.16 1713.67 198.72C1718.12 192.127 1723.79 186.913 1730.69 183.08C1737.59 179.247 1747.17 174.877 1759.44 169.97V160.54C1759.44 151.8 1758.52 145.667 1756.68 142.14C1754.99 138.46 1751.47 136.62 1746.1 136.62C1736.75 136.62 1732.07 142.907 1732.07 155.48V162.15L1707.69 161.23C1708 146.51 1711.37 135.7 1717.81 128.8C1724.25 121.747 1734.22 118.22 1747.71 118.22C1760.44 118.22 1769.64 121.747 1775.31 128.8C1781.14 135.7 1784.05 146.203 1784.05 160.31V221.03C1784.05 230.997 1784.82 241.653 1786.35 253H1763.81C1762.12 244.26 1761.05 237.743 1760.59 233.45C1758.75 239.43 1755.53 244.49 1750.93 248.63C1746.48 252.77 1740.73 254.84 1733.68 254.84ZM1743.34 233.68C1746.56 233.68 1749.7 232.453 1752.77 230C1755.84 227.393 1758.06 224.94 1759.44 222.64V184.92C1752.85 188.6 1747.71 191.82 1744.03 194.58C1740.5 197.187 1737.51 200.253 1735.06 203.78C1732.76 207.307 1731.61 211.523 1731.61 216.43C1731.61 221.95 1732.61 226.243 1734.6 229.31C1736.59 232.223 1739.51 233.68 1743.34 233.68ZM350.623 365.7H376.153L409.043 516.81L442.163 365.7H467.463L470.913 552H449.983L447.913 416.76L416.403 552H401.683L370.403 416.76L368.333 552H347.173L350.623 365.7ZM540.869 553.84C526.762 553.84 516.719 549.7 510.739 541.42C504.912 532.987 501.999 520.797 501.999 504.85V466.21C501.999 450.263 504.912 438.15 510.739 429.87C516.719 421.437 526.762 417.22 540.869 417.22C554.822 417.22 564.712 421.437 570.539 429.87C576.519 438.15 579.509 450.263 579.509 466.21V504.85C579.509 520.797 576.519 532.987 570.539 541.42C564.712 549.7 554.822 553.84 540.869 553.84ZM540.869 535.67C545.315 535.67 548.535 534.367 550.529 531.76C552.522 529.153 553.749 525.933 554.209 522.1C554.669 518.267 554.899 513.053 554.899 506.46V464.83C554.899 458.237 554.669 453.023 554.209 449.19C553.749 445.203 552.522 441.907 550.529 439.3C548.535 436.693 545.315 435.39 540.869 435.39C536.422 435.39 533.125 436.693 530.979 439.3C528.985 441.907 527.759 445.203 527.299 449.19C526.839 453.023 526.609 458.237 526.609 464.83V506.46C526.609 513.053 526.839 518.267 527.299 522.1C527.759 525.933 528.985 529.153 530.979 531.76C533.125 534.367 536.422 535.67 540.869 535.67ZM608.904 419.06H633.514V474.95H665.024V419.06H689.634V552H665.024V492.89H633.514V552H608.904V419.06ZM721.37 419.06H742.07V508.53L782.09 419.06H801.41V552H781.17V461.84L741.38 552H721.37V419.06ZM848.337 437.46H823.497V419.06H898.017V437.46H872.947V552H848.337V437.46ZM955.021 553.84C940.915 553.84 930.871 549.7 924.891 541.42C919.065 532.987 916.151 520.797 916.151 504.85V466.21C916.151 450.263 919.065 438.15 924.891 429.87C930.871 421.437 940.915 417.22 955.021 417.22C968.975 417.22 978.865 421.437 984.691 429.87C990.671 438.15 993.661 450.263 993.661 466.21V504.85C993.661 520.797 990.671 532.987 984.691 541.42C978.865 549.7 968.975 553.84 955.021 553.84ZM955.021 535.67C959.468 535.67 962.688 534.367 964.681 531.76C966.675 529.153 967.901 525.933 968.361 522.1C968.821 518.267 969.051 513.053 969.051 506.46V464.83C969.051 458.237 968.821 453.023 968.361 449.19C967.901 445.203 966.675 441.907 964.681 439.3C962.688 436.693 959.468 435.39 955.021 435.39C950.575 435.39 947.278 436.693 945.131 439.3C943.138 441.907 941.911 445.203 941.451 449.19C940.991 453.023 940.761 458.237 940.761 464.83V506.46C940.761 513.053 940.991 518.267 941.451 522.1C941.911 525.933 943.138 529.153 945.131 531.76C947.278 534.367 950.575 535.67 955.021 535.67ZM1023.06 419.06H1047.67V429.64C1054.87 421.36 1063.31 417.22 1072.97 417.22C1085.08 417.22 1093.13 422.433 1097.12 432.86C1101.26 443.133 1103.33 454.557 1103.33 467.13V499.33C1103.33 515.583 1100.8 528.77 1095.74 538.89C1090.83 548.857 1082.32 553.84 1070.21 553.84C1062.39 553.84 1054.87 549.93 1047.67 542.11V595.7H1023.06V419.06ZM1065.38 534.52C1071.05 534.52 1074.65 531.683 1076.19 526.01C1077.87 520.183 1078.72 511.29 1078.72 499.33V467.13C1078.72 457.317 1077.8 449.803 1075.96 444.59C1074.12 439.223 1070.28 436.54 1064.46 436.54C1058.78 436.54 1053.19 438.84 1047.67 443.44V528.54C1053.03 532.527 1058.94 534.52 1065.38 534.52ZM1132.6 419.06H1153.3V508.53L1193.32 419.06H1212.64V552H1192.4V461.84L1152.61 552H1132.6V419.06ZM1244.62 419.06H1269.23V474.95H1300.74V419.06H1325.35V552H1300.74V492.89H1269.23V552H1244.62V419.06ZM1357.09 419.06H1410.68V436.77H1381.7V552H1357.09V419.06ZM1453.27 553.84C1448.21 553.84 1443.61 552.383 1439.47 549.47C1435.48 546.557 1432.34 542.723 1430.04 537.97C1427.74 533.217 1426.59 528.233 1426.59 523.02C1426.59 512.593 1428.81 504.16 1433.26 497.72C1437.7 491.127 1443.38 485.913 1450.28 482.08C1457.18 478.247 1466.76 473.877 1479.03 468.97V459.54C1479.03 450.8 1478.11 444.667 1476.27 441.14C1474.58 437.46 1471.05 435.62 1465.69 435.62C1456.33 435.62 1451.66 441.907 1451.66 454.48V461.15L1427.28 460.23C1427.58 445.51 1430.96 434.7 1437.4 427.8C1443.84 420.747 1453.8 417.22 1467.3 417.22C1480.02 417.22 1489.22 420.747 1494.9 427.8C1500.72 434.7 1503.64 445.203 1503.64 459.31V520.03C1503.64 529.997 1504.4 540.653 1505.94 552H1483.4C1481.71 543.26 1480.64 536.743 1480.18 532.45C1478.34 538.43 1475.12 543.49 1470.52 547.63C1466.07 551.77 1460.32 553.84 1453.27 553.84ZM1462.93 532.68C1466.15 532.68 1469.29 531.453 1472.36 529C1475.42 526.393 1477.65 523.94 1479.03 521.64V483.92C1472.43 487.6 1467.3 490.82 1463.62 493.58C1460.09 496.187 1457.1 499.253 1454.65 502.78C1452.35 506.307 1451.2 510.523 1451.2 515.43C1451.2 520.95 1452.19 525.243 1454.19 528.31C1456.18 531.223 1459.09 532.68 1462.93 532.68Z" fill="#203683"/>
<path d="M514.091 754.1H532.181C538.481 754.1 543.041 755.81 545.861 759.23C548.741 762.65 550.181 767.66 550.181 774.26C550.181 780.2 548.651 784.82 545.591 788.12C542.531 791.42 538.091 793.07 532.271 793.07H524.261V827H514.091V754.1ZM528.941 785.78C531.941 785.78 534.251 785.45 535.871 784.79C537.551 784.13 538.751 782.99 539.471 781.37C540.191 779.75 540.551 777.41 540.551 774.35C540.551 770.63 540.281 767.9 539.741 766.16C539.201 764.42 538.121 763.19 536.501 762.47C534.941 761.75 532.451 761.39 529.031 761.39H524.261V785.78H528.941ZM577.223 826.82C570.623 826.82 565.883 825.05 563.003 821.51C560.183 817.97 558.773 812.75 558.773 805.85V802.25H568.403V805.13C568.403 808.43 568.553 811.01 568.853 812.87C569.153 814.67 569.933 816.14 571.193 817.28C572.453 818.36 574.433 818.9 577.133 818.9C579.833 818.9 581.843 818.3 583.163 817.1C584.543 815.9 585.443 814.25 585.863 812.15C586.283 810.05 586.493 807.26 586.493 803.78V792.26H573.713V785.6H586.493V774.98C586.493 771.26 586.193 768.35 585.593 766.25C584.993 764.15 584.003 762.65 582.623 761.75C581.303 760.85 579.473 760.4 577.133 760.4C574.553 760.4 572.633 760.97 571.373 762.11C570.113 763.25 569.303 764.81 568.943 766.79C568.583 768.77 568.403 771.47 568.403 774.89V778.04H558.773V774.8C558.773 767.54 560.153 761.99 562.913 758.15C565.673 754.31 570.443 752.39 577.223 752.39C584.423 752.39 589.463 754.55 592.343 758.87C595.283 763.13 596.753 769.04 596.753 776.6V802.34C596.753 810.38 595.313 816.47 592.433 820.61C589.553 824.75 584.483 826.82 577.223 826.82ZM608.503 830.24C610.123 830.42 611.533 830.51 612.733 830.51C615.673 830.51 617.683 830.03 618.763 829.07C619.903 828.11 620.473 826.58 620.473 824.48C620.473 823.28 620.263 821.42 619.843 818.9L605.443 754.1H615.073L621.193 785.15L624.883 808.28L628.123 785.33L633.613 754.1H643.333L630.283 819.08L629.563 823.13C628.783 827.39 628.003 830.48 627.223 832.4C626.503 834.32 625.093 835.76 622.993 836.72C620.893 837.74 617.653 838.25 613.273 838.25C612.493 838.25 610.903 838.19 608.503 838.07V830.24ZM675.252 774.98H683.352V809.99L699.012 774.98H706.572V827H698.652V791.72L683.082 827H675.252V774.98ZM719.355 774.98H726.465L737.985 806.93L749.595 774.98H756.705L757.245 827H749.145V795.95L739.515 821.87H736.545L726.915 796.13V827H718.815L719.355 774.98ZM768.972 816.29H778.602V827H768.972V816.29ZM813.161 754.1H840.881V761.66H823.331V827H813.161V754.1ZM849.318 816.29H858.948V827H849.318V816.29ZM870.241 754.1H886.981C893.581 754.1 898.471 755.6 901.651 758.6C904.831 761.54 906.421 766.13 906.421 772.37C906.421 781.67 902.941 786.8 895.981 787.76C900.301 788.78 903.451 790.82 905.431 793.88C907.411 796.88 908.401 800.99 908.401 806.21C908.401 812.75 906.841 817.85 903.721 821.51C900.661 825.17 895.981 827 889.681 827H870.241V754.1ZM886.441 784.52C890.641 784.52 893.551 783.62 895.171 781.82C896.791 779.96 897.601 776.81 897.601 772.37C897.601 769.13 897.091 766.76 896.071 765.26C895.111 763.7 893.641 762.71 891.661 762.29C889.681 761.87 886.741 761.66 882.841 761.66H880.411V784.52H886.441ZM887.251 819.71C890.251 819.71 892.561 819.26 894.181 818.36C895.861 817.4 897.031 815.96 897.691 814.04C898.351 812.12 898.681 809.51 898.681 806.21C898.681 801.53 897.721 798.05 895.801 795.77C893.881 793.43 890.761 792.26 886.441 792.26H880.411V819.71H887.251ZM918.878 816.29H928.508V827H918.878V816.29ZM963.067 754.1H1003.21V827H993.037V761.39H973.237V827H963.067V754.1ZM1013.13 820.16C1015.53 820.16 1017.27 819.53 1018.35 818.27C1019.49 816.95 1020.27 814.82 1020.69 811.88C1021.17 808.94 1021.59 804.17 1021.95 797.57L1023.12 774.98H1050.39V827H1040.76V782.27H1031.58L1030.77 797.57C1030.35 805.91 1029.66 812.15 1028.7 816.29C1027.74 820.37 1026.15 823.25 1023.93 824.93C1021.77 826.61 1018.53 827.45 1014.21 827.45H1013.13V820.16ZM1077.24 827.72C1073.22 827.72 1070.1 826.97 1067.88 825.47C1065.66 823.91 1064.1 821.63 1063.2 818.63C1062.3 815.63 1061.85 811.73 1061.85 806.93V795.05C1061.85 787.85 1062.96 782.6 1065.18 779.3C1067.46 775.94 1071.48 774.26 1077.24 774.26C1081.44 774.26 1084.59 775.13 1086.69 776.87C1088.85 778.61 1090.26 781.07 1090.92 784.25C1091.64 787.37 1092 791.6 1092 796.94V801.17H1071.48V811.61C1071.48 814.79 1071.93 817.1 1072.83 818.54C1073.79 819.92 1075.29 820.61 1077.33 820.61C1079.37 820.61 1080.75 819.92 1081.47 818.54C1082.19 817.1 1082.55 814.94 1082.55 812.06V808.91H1091.91V810.89C1091.91 816.35 1090.74 820.52 1088.4 823.4C1086.06 826.28 1082.34 827.72 1077.24 827.72ZM1082.55 795.95V791.27C1082.55 787.73 1082.19 785.21 1081.47 783.71C1080.81 782.15 1079.37 781.37 1077.15 781.37C1075.59 781.37 1074.39 781.73 1073.55 782.45C1072.77 783.17 1072.23 784.37 1071.93 786.05C1071.63 787.67 1071.48 790.04 1071.48 793.16V795.95H1082.55ZM1111.07 799.64L1099.64 774.98H1108.82L1116.47 791.45L1123.22 774.98H1132.67L1120.79 800.81L1132.85 827H1123.67L1115.48 809.36L1108.46 827H1099.37L1111.07 799.64ZM1150.46 827.72C1148.48 827.72 1146.68 827.15 1145.06 826.01C1143.5 824.87 1142.27 823.37 1141.37 821.51C1140.47 819.65 1140.02 817.7 1140.02 815.66C1140.02 811.58 1140.89 808.28 1142.63 805.76C1144.37 803.18 1146.59 801.14 1149.29 799.64C1151.99 798.14 1155.74 796.43 1160.54 794.51V790.82C1160.54 787.4 1160.18 785 1159.46 783.62C1158.8 782.18 1157.42 781.46 1155.32 781.46C1151.66 781.46 1149.83 783.92 1149.83 788.84V791.45L1140.29 791.09C1140.41 785.33 1141.73 781.1 1144.25 778.4C1146.77 775.64 1150.67 774.26 1155.95 774.26C1160.93 774.26 1164.53 775.64 1166.75 778.4C1169.03 781.1 1170.17 785.21 1170.17 790.73V814.49C1170.17 818.39 1170.47 822.56 1171.07 827H1162.25C1161.59 823.58 1161.17 821.03 1160.99 819.35C1160.27 821.69 1159.01 823.67 1157.21 825.29C1155.47 826.91 1153.22 827.72 1150.46 827.72ZM1154.24 819.44C1155.5 819.44 1156.73 818.96 1157.93 818C1159.13 816.98 1160 816.02 1160.54 815.12V800.36C1157.96 801.8 1155.95 803.06 1154.51 804.14C1153.13 805.16 1151.96 806.36 1151 807.74C1150.1 809.12 1149.65 810.77 1149.65 812.69C1149.65 814.85 1150.04 816.53 1150.82 817.73C1151.6 818.87 1152.74 819.44 1154.24 819.44ZM1182.12 774.98H1191.75V796.85H1204.08V774.98H1213.71V827H1204.08V803.87H1191.75V827H1182.12V774.98ZM1240.44 827.72C1234.92 827.72 1230.99 826.1 1228.65 822.86C1226.37 819.56 1225.23 814.79 1225.23 808.55V793.43C1225.23 787.19 1226.37 782.45 1228.65 779.21C1230.99 775.91 1234.92 774.26 1240.44 774.26C1245.9 774.26 1249.77 775.91 1252.05 779.21C1254.39 782.45 1255.56 787.19 1255.56 793.43V808.55C1255.56 814.79 1254.39 819.56 1252.05 822.86C1249.77 826.1 1245.9 827.72 1240.44 827.72ZM1240.44 820.61C1242.18 820.61 1243.44 820.1 1244.22 819.08C1245 818.06 1245.48 816.8 1245.66 815.3C1245.84 813.8 1245.93 811.76 1245.93 809.18V792.89C1245.93 790.31 1245.84 788.27 1245.66 786.77C1245.48 785.21 1245 783.92 1244.22 782.9C1243.44 781.88 1242.18 781.37 1240.44 781.37C1238.7 781.37 1237.41 781.88 1236.57 782.9C1235.79 783.92 1235.31 785.21 1235.13 786.77C1234.95 788.27 1234.86 790.31 1234.86 792.89V809.18C1234.86 811.76 1234.95 813.8 1235.13 815.3C1235.31 816.8 1235.79 818.06 1236.57 819.08C1237.41 820.1 1238.7 820.61 1240.44 820.61ZM1267.07 774.98H1281.65C1286.63 774.98 1290.2 776.18 1292.36 778.58C1294.58 780.98 1295.69 784.07 1295.69 787.85C1295.69 790.61 1295.18 792.92 1294.16 794.78C1293.14 796.58 1291.37 797.87 1288.85 798.65C1291.79 799.25 1293.86 800.75 1295.06 803.15C1296.32 805.55 1296.95 808.46 1296.95 811.88C1296.95 816.8 1295.84 820.55 1293.62 823.13C1291.4 825.71 1287.56 827 1282.1 827H1267.07V774.98ZM1281.2 795.95C1283.18 795.95 1284.68 795.38 1285.7 794.24C1286.72 793.1 1287.23 791.21 1287.23 788.57C1287.23 786.23 1286.63 784.55 1285.43 783.53C1284.23 782.51 1282.49 782 1280.21 782H1276.52V795.95H1281.2ZM1279.94 819.71C1282.34 819.71 1284.2 819.14 1285.52 818C1286.84 816.86 1287.5 814.7 1287.5 811.52C1287.5 808.94 1287.2 807.05 1286.6 805.85C1286 804.59 1285.22 803.78 1284.26 803.42C1283.3 803.06 1282.01 802.88 1280.39 802.88H1276.52V819.71H1279.94ZM1316.48 827.72C1314.5 827.72 1312.7 827.15 1311.08 826.01C1309.52 824.87 1308.29 823.37 1307.39 821.51C1306.49 819.65 1306.04 817.7 1306.04 815.66C1306.04 811.58 1306.91 808.28 1308.65 805.76C1310.39 803.18 1312.61 801.14 1315.31 799.64C1318.01 798.14 1321.76 796.43 1326.56 794.51V790.82C1326.56 787.4 1326.2 785 1325.48 783.62C1324.82 782.18 1323.44 781.46 1321.34 781.46C1317.68 781.46 1315.85 783.92 1315.85 788.84V791.45L1306.31 791.09C1306.43 785.33 1307.75 781.1 1310.27 778.4C1312.79 775.64 1316.69 774.26 1321.97 774.26C1326.95 774.26 1330.55 775.64 1332.77 778.4C1335.05 781.1 1336.19 785.21 1336.19 790.73V814.49C1336.19 818.39 1336.49 822.56 1337.09 827H1328.27C1327.61 823.58 1327.19 821.03 1327.01 819.35C1326.29 821.69 1325.03 823.67 1323.23 825.29C1321.49 826.91 1319.24 827.72 1316.48 827.72ZM1320.26 819.44C1321.52 819.44 1322.75 818.96 1323.95 818C1325.15 816.98 1326.02 816.02 1326.56 815.12V800.36C1323.98 801.8 1321.97 803.06 1320.53 804.14C1319.15 805.16 1317.98 806.36 1317.02 807.74C1316.12 809.12 1315.67 810.77 1315.67 812.69C1315.67 814.85 1316.06 816.53 1316.84 817.73C1317.62 818.87 1318.76 819.44 1320.26 819.44Z" fill="#203683"/>
</svg>
