<svg width="275" height="338" viewBox="0 0 275 338" fill="none" xmlns="http://www.w3.org/2000/svg">
<mask id="path-1-inside-1" fill="white">
<path d="M274.891 337.737C276.727 264.397 255.405 192.342 213.954 131.811C172.503 71.2804 113.031 25.3511 43.9871 0.549023L0.860931 120.603C44.6682 136.34 82.4023 165.481 108.702 203.887C135.002 242.293 148.531 288.01 147.366 334.544L274.891 337.737Z"/>
</mask>
<path d="M274.891 337.737C276.727 264.397 255.405 192.342 213.954 131.811C172.503 71.2804 113.031 25.3511 43.9871 0.549023L0.860931 120.603C44.6682 136.34 82.4023 165.481 108.702 203.887C135.002 242.293 148.531 288.01 147.366 334.544L274.891 337.737Z" fill="#0B1B51" fill-opacity="0.7" stroke="#44BCFF" stroke-opacity="0.4" stroke-width="2" mask="url(#path-1-inside-1)"/>
</svg>