<svg width="350" height="176" viewBox="0 0 350 176" fill="none" xmlns="http://www.w3.org/2000/svg">
<path d="M175.06 176C174.15 176 173.24 176 172.33 176L172.93 135.89H175.05C177.19 135.89 179.36 135.84 181.51 135.74L183.41 175.81C180.64 175.93 177.83 176 175.06 176Z" fill="#009FE3"/>
<path d="M166.79 175.81C163.11 175.64 159.39 175.35 155.74 174.95L160.11 135.07C162.94 135.38 165.81 135.6 168.65 135.73L166.79 175.81Z" fill="#009FE3"/>
<path d="M188.95 175.45L185.79 135.45C188.62 135.23 191.49 134.91 194.3 134.51L200 174.23C196.33 174.75 192.62 175.16 188.95 175.45Z" fill="#009FE3"/>
<path d="M150.229 174.26C146.569 173.74 142.889 173.1 139.279 172.35L147.439 133.07C150.209 133.65 153.049 134.14 155.859 134.54L150.229 174.26Z" fill="#009FE3"/>
<path d="M205.46 173.36L198.52 133.85C201.32 133.36 204.13 132.77 206.89 132.1L216.33 171.1C212.75 172 209.09 172.72 205.46 173.36Z" fill="#009FE3"/>
<path d="M133.86 171.13C130.28 170.27 126.68 169.28 123.15 168.18L135 129.87C137.72 130.71 140.49 131.47 143.24 132.14L133.86 171.13Z" fill="#009FE3"/>
<path d="M221.71 169.69L211 131C213.73 130.24 216.48 129.39 219.16 128.46L232.3 166.36C228.84 167.6 225.27 168.71 221.71 169.69Z" fill="#009FE3"/>
<path d="M117.86 166.45C114.37 165.25 110.86 163.91 107.46 162.45L122.95 125.45C125.57 126.55 128.26 127.58 130.95 128.5L117.86 166.45Z" fill="#009FE3"/>
<path d="M237.54 164.49L223.21 127C225.85 126 228.5 124.88 231.08 123.7L247.78 160.18C244.42 161.73 241 163.17 237.54 164.49Z" fill="#009FE3"/>
<path d="M102.35 160.25C98.9896 158.72 95.6396 157.05 92.3496 155.31L111.35 119.96C113.85 121.3 116.43 122.58 119.02 123.76L102.35 160.25Z" fill="#009FE3"/>
<path d="M252.77 157.81L234.92 121.89C237.46 120.63 239.99 119.27 242.45 117.89L262.54 152.61C259.35 154.41 256.07 156.17 252.77 157.81Z" fill="#009FE3"/>
<path d="M87.5396 152.61C84.3496 150.77 81.1696 148.79 78.0996 146.74L100.34 113.36C102.71 114.94 105.15 116.46 107.61 117.88L87.5396 152.61Z" fill="#009FE3"/>
<path d="M267.3 149.71L246.12 115.64C248.53 114.14 250.92 112.55 253.23 110.9L276.53 143.55C273.53 145.69 270.42 147.76 267.3 149.71Z" fill="#009FE3"/>
<path d="M73.5194 143.59C70.5194 141.45 67.5195 139.19 64.6895 136.86L89.9995 105.73C92.2094 107.52 94.4995 109.27 96.8195 110.92L73.5194 143.59Z" fill="#009FE3"/>
<path d="M281 140.26L256.68 108.36C258.94 106.64 261.17 104.82 263.32 102.96L289.6 133.27C286.81 135.68 283.92 138 281 140.26Z" fill="#009FE3"/>
<path d="M60.44 133.29C57.66 130.88 54.91 128.35 52.29 125.76L80.42 97.16C82.42 99.16 84.57 101.11 86.71 102.97L60.44 133.29Z" fill="#009FE3"/>
<path d="M293.73 129.56L266.51 100.1C268.6 98.17 270.65 96.1 272.62 94.1L301.62 121.79C299.09 124.45 296.43 127.07 293.73 129.56Z" fill="#009FE3"/>
<path d="M48.3902 121.81C45.8502 119.15 43.3902 116.36 40.9902 113.55L71.6902 87.74C73.5202 89.91 75.4402 92.06 77.4002 94.12L48.3902 121.81Z" fill="#009FE3"/>
<path d="M305.4 117.71L275.52 90.95C277.41 88.83 279.27 86.63 281.03 84.39L312.55 109.21C310.26 112.1 307.86 115 305.4 117.71Z" fill="#009FE3"/>
<path d="M37.4904 109.25C35.2104 106.36 33.0004 103.36 30.9004 100.33L63.9004 77.53C65.5204 79.87 67.2304 82.19 68.9804 84.42L37.4904 109.25Z" fill="#009FE3"/>
<path d="M315.91 104.79L283.63 81C285.32 78.71 286.95 76.34 288.49 73.95L322.22 95.67C320.22 98.75 318.1 101.83 315.91 104.79Z" fill="#009FE3"/>
<path d="M27.8194 95.71C25.8194 92.61 23.8994 89.41 22.1094 86.2L57.1094 66.65C58.4894 69.12 59.9694 71.59 61.5094 73.98L27.8194 95.71Z" fill="#009FE3"/>
<path d="M325.15 90.93L290.75 70.29C292.21 67.85 293.62 65.29 294.92 62.81L330.56 81.22C328.87 84.5 327.05 87.76 325.15 90.93Z" fill="#009FE3"/>
<path d="M19.4802 81.32C17.7802 78.04 16.1802 74.68 14.7002 71.32L51.4302 55.19C52.5702 57.78 53.8102 60.37 55.1102 62.9L19.4802 81.32Z" fill="#009FE3"/>
<path d="M333 76.24L296.83 59C298.05 56.43 299.21 53.79 300.26 51.16L337.51 66C336.14 69.47 334.63 72.9 333 76.24Z" fill="#009FE3"/>
<path d="M12.56 66.21C11.18 62.78 9.9 59.27 8.75 55.77L46.85 43.23C47.73 45.92 48.72 48.62 49.78 51.23L12.56 66.21Z" fill="#009FE3"/>
<path d="M339.5 60.84L301.8 47.12C302.8 44.45 303.67 41.72 304.46 39L343 50.28C341.92 53.82 340.76 57.37 339.5 60.84Z" fill="#009FE3"/>
<path d="M7.0898 50.46C6.0898 46.93 5.0898 43.31 4.2998 39.71L43.4298 30.86C44.0598 33.63 44.7798 36.42 45.5798 39.14L7.0898 50.46Z" fill="#009FE3"/>
<path d="M344.43 44.93L305.6 34.88C306.31 32.14 306.94 29.33 307.47 26.54L346.87 34.08C346.18 37.71 345.36 41.36 344.43 44.93Z" fill="#009FE3"/>
<path d="M3.16016 34.27C2.46016 30.65 1.87016 26.96 1.41016 23.27L41.2002 18.2C41.5602 21.02 42.0102 23.86 42.5502 26.64L3.16016 34.27Z" fill="#009FE3"/>
<path d="M347.83 28.61L308.21 22.33C308.65 19.53 309.02 16.67 309.28 13.84L349.22 17.61C348.87 21.28 348.41 25 347.83 28.61Z" fill="#009FE3"/>
<path d="M0.799844 17.79C0.449844 14.13 0.209844 10.4 0.0898438 6.72L40.1798 5.42999C40.2698 8.26999 40.4598 11.15 40.7198 13.98L0.799844 17.79Z" fill="#009FE3"/>
<path d="M349.65 12.08L309.65 9.56999C309.83 6.73999 309.92 3.85998 309.92 0.999985V0.669983H350V0.999985C350 4.68998 349.88 8.41999 349.65 12.08Z" fill="#009FE3"/>
</svg>
