<svg width="272" height="320" viewBox="0 0 272 320" fill="none" xmlns="http://www.w3.org/2000/svg">
<mask id="path-1-inside-1" fill="white">
<path d="M226.753 319.889C162.143 295.727 106.142 252.96 65.8229 196.99C25.5041 141.019 2.67579 74.3562 0.221052 5.41956L127.705 0.880005C129.263 44.6192 143.747 86.9159 169.329 122.428C194.91 157.94 230.442 185.075 271.436 200.406L226.753 319.889Z"/>
</mask>
<path d="M226.753 319.889C162.143 295.727 106.142 252.96 65.8229 196.99C25.5041 141.019 2.67579 74.3562 0.221052 5.41956L127.705 0.880005C129.263 44.6192 143.747 86.9159 169.329 122.428C194.91 157.94 230.442 185.075 271.436 200.406L226.753 319.889Z" fill="#112054" stroke="#217AFF" stroke-opacity="0.9" stroke-width="6" mask="url(#path-1-inside-1)"/>
</svg>
