<svg width="222" height="137" viewBox="0 0 222 137" fill="none" xmlns="http://www.w3.org/2000/svg">
<mask id="path-1-inside-1" fill="white">
<path d="M221.478 18.002C149.603 -6.06025 71.8385 -5.99896 0.00233039 18.1765L39.9481 136.873C85.9319 121.398 135.711 121.359 181.719 136.761L221.478 18.002Z"/>
</mask>
<path d="M221.478 18.002C149.603 -6.06025 71.8385 -5.99896 0.00233039 18.1765L39.9481 136.873C85.9319 121.398 135.711 121.359 181.719 136.761L221.478 18.002Z" fill="#112054"/>
<path d="M221.478 18.002C149.603 -6.06025 71.8385 -5.99896 0.00233039 18.1765L39.9481 136.873C85.9319 121.398 135.711 121.359 181.719 136.761L221.478 18.002Z" fill="url(#paint0_linear)"/>
<path d="M221.478 18.002C149.603 -6.06025 71.8385 -5.99896 0.00233039 18.1765L39.9481 136.873C85.9319 121.398 135.711 121.359 181.719 136.761L221.478 18.002Z" stroke="#217AFF" stroke-width="2" mask="url(#path-1-inside-1)"/>
<defs>
<linearGradient id="paint0_linear" x1="-16.9742" y1="-39.2903" x2="111" y2="696" gradientUnits="userSpaceOnUse">
<stop stop-color="#217AFF" stop-opacity="0.23"/>
<stop offset="0.182292" stop-color="#217AFF" stop-opacity="0"/>
</linearGradient>
</defs>
</svg>
