<svg width="295" height="350" viewBox="0 0 295 350" fill="none" xmlns="http://www.w3.org/2000/svg">
<mask id="path-1-inside-1" fill="white">
<path d="M0 350C6.63807e-06 274.069 23.1735 199.947 66.4239 137.538C109.674 75.1291 170.941 27.4062 242.038 0.746616L294.492 140.631C251.871 156.613 215.143 185.222 189.215 222.634C163.288 260.047 149.396 304.481 149.396 350H0Z"/>
</mask>
<path d="M0 350C6.63807e-06 274.069 23.1735 199.947 66.4239 137.538C109.674 75.1291 170.941 27.4062 242.038 0.746616L294.492 140.631C251.871 156.613 215.143 185.222 189.215 222.634C163.288 260.047 149.396 304.481 149.396 350H0Z" fill="#112054" stroke="#217AFF" stroke-opacity="0.4" stroke-width="2" mask="url(#path-1-inside-1)"/>
</svg>
