<svg width="296" height="339" viewBox="0 0 296 339" fill="none" xmlns="http://www.w3.org/2000/svg">
<mask id="path-1-inside-1" fill="white">
<path d="M295.693 6.01062C292.664 80.0063 267.319 151.354 222.99 210.679C178.66 270.004 117.42 314.53 47.3168 338.405L0.342682 200.478C42.6137 186.082 79.5404 159.234 106.27 123.462C133 87.6906 148.282 44.669 150.109 0.0511169L295.693 6.01062Z"/>
</mask>
<path d="M295.693 6.01062C292.664 80.0063 267.319 151.354 222.99 210.679C178.66 270.004 117.42 314.53 47.3168 338.405L0.342682 200.478C42.6137 186.082 79.5404 159.234 106.27 123.462C133 87.6906 148.282 44.669 150.109 0.0511169L295.693 6.01062Z" fill="#112054" stroke="#217AFF" stroke-opacity="0.2" stroke-width="2" mask="url(#path-1-inside-1)"/>
</svg>
