<svg width="350" height="176" viewBox="0 0 350 176" fill="none" xmlns="http://www.w3.org/2000/svg">
<path d="M309.81 170.43C309.72 167.58 309.53 164.7 309.26 161.88L349.19 158C349.54 161.66 349.78 165.38 349.91 169.06L309.81 170.43Z" fill="#009FE3"/>
<path d="M308.78 157.62C308.42 154.79 307.96 151.95 307.42 149.17L346.8 141.54C347.5 145.15 348.09 148.83 348.56 152.54L308.78 157.62Z" fill="#009FE3"/>
<path d="M306.54 145C305.91 142.24 305.19 139.45 304.38 136.73L342.85 125.37C343.85 128.91 344.85 132.53 345.66 136.12L306.54 145Z" fill="#009FE3"/>
<path d="M303.1 132.64C302.21 129.96 301.23 127.26 300.16 124.64L337.37 109.64C338.75 113.07 340.04 116.59 341.19 120.08L303.1 132.64Z" fill="#009FE3"/>
<path d="M298.51 120.69C297.37 118.1 296.13 115.51 294.82 112.99L330.43 94.51C332.13 97.78 333.74 101.15 335.22 104.51L298.51 120.69Z" fill="#009FE3"/>
<path d="M292.79 109.23C291.41 106.76 289.93 104.3 288.38 101.91L322.07 80.14C324.07 83.24 326 86.44 327.79 89.65L292.79 109.23Z" fill="#009FE3"/>
<path d="M286 98.35C284.38 96.01 282.67 93.7 280.91 91.47L312.4 66.61C314.68 69.5 316.9 72.5 319 75.53L286 98.35Z" fill="#009FE3"/>
<path d="M278.21 88.1601C276.38 85.9901 274.45 83.8401 272.49 81.7901L301.49 54.0601C304.04 56.7201 306.49 59.5001 308.9 62.3101L278.21 88.1601Z" fill="#009FE3"/>
<path d="M269.48 78.74C267.48 76.74 265.33 74.79 263.18 72.93L289.42 42.59C292.2 45 294.95 47.53 297.58 50.11L269.48 78.74Z" fill="#009FE3"/>
<path d="M259.9 70.1801C257.69 68.3901 255.4 66.6401 253.08 65.0001L276.33 32.3101C279.33 34.4501 282.33 36.7101 285.17 39.0301L259.9 70.1801Z" fill="#009FE3"/>
<path d="M249.55 62.5701C247.18 61.0001 244.73 59.4801 242.27 58.0601L262.27 23.3101C265.46 25.1501 268.64 27.1201 271.71 29.1601L249.55 62.5701Z" fill="#009FE3"/>
<path d="M238.52 56C236.01 54.66 233.43 53.38 230.84 52.2L247.47 15.7C250.82 17.23 254.18 18.89 257.47 20.63L238.52 56Z" fill="#009FE3"/>
<path d="M226.92 50.46C224.3 49.37 221.6 48.34 218.92 47.46L232 9.48999C235.49 10.69 239 12.02 242.4 13.49L226.92 50.46Z" fill="#009FE3"/>
<path d="M214.84 46.09C212.13 45.26 209.36 44.5 206.6 43.83L215.96 4.82996C219.55 5.68996 223.16 6.67996 226.68 7.76996L214.84 46.09Z" fill="#009FE3"/>
<path d="M202.43 42.9C199.65 42.33 196.81 41.83 194 41.44L199.59 1.71997C203.24 2.22997 206.92 2.86997 210.53 3.61997L202.43 42.9Z" fill="#009FE3"/>
<path d="M189.75 40.9101C186.93 40.6001 184.06 40.3801 181.21 40.2501L183 0.180054C186.69 0.350054 190.41 0.630054 194.06 1.03005L189.75 40.9101Z" fill="#009FE3"/>
<path d="M168.35 40.28L166.4 0.21C170.07 0 173.82 0 177.49 0L176.93 40.11C174.07 40.09 171.18 40.14 168.35 40.28Z" fill="#009FE3"/>
<path d="M155.56 41.4999L149.84 1.79995C153.48 1.27995 157.19 0.859946 160.84 0.569946L164.04 40.5699C161.23 40.7799 158.37 41.0999 155.56 41.4999Z" fill="#009FE3"/>
<path d="M143 43.94L133.49 4.99997C137.07 4.12997 140.73 3.35997 144.36 2.71997L151.36 42.22C148.54 42.67 145.73 43.27 143 43.94Z" fill="#009FE3"/>
<path d="M130.68 47.56L117.5 9.66999C120.98 8.45999 124.5 7.34999 128.1 6.35999L138.84 45C136.1 45.77 133.36 46.63 130.68 47.56Z" fill="#009FE3"/>
<path d="M118.801 52.34L102.061 15.89C105.401 14.35 108.841 12.89 112.281 11.58L126.661 49C124.001 50 121.371 51.16 118.801 52.34Z" fill="#009FE3"/>
<path d="M107.43 58.23L87.29 23.54C90.48 21.69 93.76 19.92 97.06 18.28L114.95 54.19C112.41 55.44 109.88 56.81 107.43 58.23Z" fill="#009FE3"/>
<path d="M96.6503 65.19L73.3203 32.56C76.3203 30.41 79.4303 28.34 82.5503 26.4L103.76 60.4C101.36 61.93 99.0003 63.53 96.6503 65.19Z" fill="#009FE3"/>
<path d="M86.5698 73.14L60.2598 42.86C63.0398 40.44 65.9298 38.08 68.8598 35.86L93.2098 67.73C90.9998 69.45 88.7198 71.27 86.5698 73.14Z" fill="#009FE3"/>
<path d="M77.2905 82.0001L48.2305 54.3501C50.7705 51.6801 53.4305 49.0601 56.1305 46.5601L83.3905 76.0001C81.3005 77.9301 79.2505 79.9501 77.2905 82.0001Z" fill="#009FE3"/>
<path d="M68.8798 91.7301L37.3398 66.9301C39.6198 64.0301 42.0198 61.1701 44.4698 58.4301L74.3798 85.1601C72.4898 87.2801 70.6398 89.4901 68.8798 91.7301Z" fill="#009FE3"/>
<path d="M61.4297 102.19L27.6797 80.51C29.6797 77.4 31.7997 74.33 33.9797 71.36L66.2797 95.14C64.5997 97.42 62.9997 99.8 61.4297 102.19Z" fill="#009FE3"/>
<path d="M54.9996 113.32L19.3496 94.94C21.0396 91.66 22.8596 88.39 24.7496 85.23L59.1696 105.83C57.7096 108.27 56.3096 110.79 54.9996 113.32Z" fill="#009FE3"/>
<path d="M49.6797 125L12.4297 110.12C13.7897 106.7 15.2897 103.28 16.8797 99.93L53.1097 117.14C51.8797 119.73 50.7297 122.37 49.6797 125Z" fill="#009FE3"/>
<path d="M45.5 137.13L7 125.89C8 122.35 9.19 118.8 10.45 115.33L48.15 129C47.18 131.68 46.29 134.41 45.5 137.13Z" fill="#009FE3"/>
<path d="M42.4998 149.6L3.08984 142.09C3.77984 138.46 4.59984 134.81 5.50984 131.25L44.3598 141.25C43.6598 144 42.9998 146.8 42.4998 149.6Z" fill="#009FE3"/>
<path d="M40.6998 162.3L0.759766 158.58C1.09977 154.91 1.56977 151.2 2.13977 147.58L41.7598 153.83C41.3298 156.61 40.9998 159.47 40.6998 162.3Z" fill="#009FE3"/>
<path d="M40.11 175.16H0V175C0 171.38 0.11 167.72 0.33 164.11L40.33 166.56C40.16 169.35 40.07 172.19 40.07 174.99L40.11 175.16Z" fill="#009FE3"/>
</svg>
